<svg width="14" height="9" viewBox="0 0 14 9" fill="#fff" xmlns="http://www.w3.org/2000/svg">
<mask id="path-1-outside-1_3630_40318" maskUnits="userSpaceOnUse" x="0.483398" y="0.229492" width="13" height="8" fill="#fff">
<rect fill="#fff" x="0.483398" y="0.229492" width="13" height="8"/>
<path d="M6.47226 6.92048L1.63053 2.31056C1.43436 2.12663 1.43436 1.82921 1.63053 1.64529L1.92688 1.36744C2.12305 1.18351 2.44027 1.18351 2.63644 1.36744L6.82704 5.3708L11.0176 1.37135C11.2138 1.18742 11.531 1.18742 11.7272 1.37135L12.0236 1.6492C12.2197 1.83313 12.2197 2.13054 12.0236 2.31447L7.18182 6.9244C6.98565 7.10441 6.66843 7.10441 6.47226 6.92048Z"/>
</mask>
<path d="M6.47226 6.92048L1.63053 2.31056C1.43436 2.12663 1.43436 1.82921 1.63053 1.64529L1.92688 1.36744C2.12305 1.18351 2.44027 1.18351 2.63644 1.36744L6.82704 5.3708L11.0176 1.37135C11.2138 1.18742 11.531 1.18742 11.7272 1.37135L12.0236 1.6492C12.2197 1.83313 12.2197 2.13054 12.0236 2.31447L7.18182 6.9244C6.98565 7.10441 6.66843 7.10441 6.47226 6.92048Z" fill="#fff"/>
<path d="M6.47226 6.92048L5.78268 7.64473L5.78829 7.64999L6.47226 6.92048ZM1.63053 2.31056L2.32011 1.5863L2.3145 1.58105L1.63053 2.31056ZM1.63053 1.64529L2.3145 2.3748L2.3145 2.3748L1.63053 1.64529ZM1.92688 1.36744L1.24291 0.637928L1.24291 0.637928L1.92688 1.36744ZM2.63644 1.36744L3.32724 0.64433L3.32041 0.637928L2.63644 1.36744ZM6.82704 5.3708L6.13627 6.09387L6.8267 6.75345L7.51746 6.09421L6.82704 5.3708ZM11.0176 1.37135L10.3336 0.641813L10.3272 0.647938L11.0176 1.37135ZM11.7272 1.37135L11.0432 2.10086L11.0432 2.10086L11.7272 1.37135ZM12.0236 1.6492L12.7075 0.919689L12.7075 0.919688L12.0236 1.6492ZM12.0236 2.31447L11.3396 1.58494L11.334 1.59024L12.0236 2.31447ZM7.18182 6.9244L7.85793 7.6612L7.86471 7.65497L7.87138 7.64863L7.18182 6.9244ZM7.16182 6.19625L2.32009 1.58632L0.940971 3.03479L5.7827 7.64471L7.16182 6.19625ZM2.3145 1.58105C2.5397 1.79219 2.5397 2.16365 2.3145 2.3748L0.946558 0.915776C0.329012 1.49477 0.329012 2.46107 0.946558 3.04007L2.3145 1.58105ZM2.3145 2.3748L2.61085 2.09695L1.24291 0.637928L0.946558 0.915776L2.3145 2.3748ZM2.61085 2.09695C2.42235 2.27367 2.14096 2.27367 1.95247 2.09695L3.32041 0.637928C2.73957 0.093347 1.82375 0.093347 1.24291 0.637928L2.61085 2.09695ZM1.94567 2.09051L6.13627 6.09387L7.51781 4.64772L3.32721 0.644361L1.94567 2.09051ZM7.51746 6.09421L11.7081 2.09477L10.3272 0.647938L6.13663 4.64738L7.51746 6.09421ZM11.7016 2.10086C11.5131 2.27759 11.2317 2.27759 11.0432 2.10086L12.4112 0.641842C11.8303 0.0972605 10.9145 0.0972605 10.3337 0.641842L11.7016 2.10086ZM11.0432 2.10086L11.3396 2.37871L12.7075 0.919688L12.4112 0.641841L11.0432 2.10086ZM11.3396 2.37871C11.1144 2.16757 11.1144 1.7961 11.3396 1.58496L12.7075 3.04398C13.3251 2.46498 13.3251 1.49869 12.7075 0.919689L11.3396 2.37871ZM11.334 1.59024L6.49227 6.20017L7.87138 7.64863L12.7131 3.0387L11.334 1.59024ZM6.50571 6.18759C6.60712 6.09454 6.72726 6.05853 6.83085 6.05892C6.93506 6.05932 7.0557 6.09672 7.15623 6.19097L5.78829 7.64999C6.36817 8.19368 7.27837 8.19302 7.85793 7.6612L6.50571 6.18759Z" fill="#fff" mask="url(#path-1-outside-1_3630_40318)"/>
</svg>
