<svg width="28" height="21" viewBox="0 0 28 21" fill="none" xmlns="http://www.w3.org/2000/svg">
<path d="M26.2499 21H1.75001C0.783471 21 0 20.2165 0 19.25C0 18.2835 0.783471 17.5 1.75001 17.5H26.25C27.2165 17.5 28 18.2835 28 19.25C27.9999 20.2165 27.2165 21 26.2499 21Z" fill="#0952A3"/>
<path d="M26.2499 12.25H1.75001C0.783471 12.25 0 11.4665 0 10.5C0 9.53353 0.783471 8.75 1.75001 8.75H26.25C27.2165 8.75 28 9.53347 28 10.5C28 11.4665 27.2165 12.25 26.2499 12.25Z" fill="#0952A3"/>
<path d="M26.2499 3.50002H1.75001C0.783471 3.50002 0 2.71654 0 1.75001C0 0.783471 0.783471 0 1.75001 0H26.25C27.2165 0 28 0.783471 28 1.75001C28 2.71654 27.2165 3.50002 26.2499 3.50002Z" fill="#0952A3"/>
</svg>
