<svg width="21" height="24" viewBox="0 0 21 24" xmlns="http://www.w3.org/2000/svg">
<path d="M20.2951 10.8257C19.9062 10.8257 19.5905 10.5101 19.5905 10.1211C19.5905 7.42304 18.5403 4.88749 16.6332 2.97946C16.358 2.70423 16.358 2.25802 16.6332 1.98279C16.9084 1.70756 17.3546 1.70756 17.63 1.98279C19.803 4.15658 20.9997 7.04735 20.9997 10.1211C20.9997 10.5101 20.684 10.8257 20.2951 10.8257Z" fill="currentColor"/>
<path d="M1.03662 10.8249C0.647685 10.8249 0.332031 10.5092 0.332031 10.1203C0.332031 7.04649 1.52893 4.15572 3.70273 1.98279C3.97796 1.70756 4.42434 1.70756 4.69957 1.98279C4.9748 2.25802 4.9748 2.70441 4.69957 2.97963C2.79155 4.88663 1.7412 7.42218 1.7412 10.1203C1.7412 10.5092 1.42555 10.8249 1.03662 10.8249Z" fill="currentColor"/>
<path d="M10.6662 23.2744C8.72347 23.2744 7.14331 21.6942 7.14331 19.7515C7.14331 19.3625 7.45896 19.0469 7.8479 19.0469C8.23683 19.0469 8.55248 19.3625 8.55248 19.7515C8.55248 20.9174 9.5003 21.8652 10.6662 21.8652C11.832 21.8652 12.78 20.9174 12.78 19.7515C12.78 19.3625 13.0957 19.0469 13.4846 19.0469C13.8735 19.0469 14.1892 19.3625 14.1892 19.7515C14.1892 21.6942 12.609 23.2744 10.6662 23.2744Z" fill="currentColor"/>
<path d="M18.4168 20.456H2.91588C2.00917 20.456 1.27173 19.7185 1.27173 18.812C1.27173 18.3309 1.48125 17.8754 1.84679 17.5625C3.27557 16.3552 4.09007 14.6005 4.09007 12.7413V10.122C4.09007 6.49584 7.04001 3.5459 10.6663 3.5459C14.2925 3.5459 17.2424 6.49584 17.2424 10.122V12.7413C17.2424 14.6005 18.0569 16.3552 19.4764 17.5559C19.8512 17.8754 20.0608 18.3309 20.0608 18.812C20.0608 19.7185 19.3233 20.456 18.4168 20.456ZM10.6663 4.95507C7.81685 4.95507 5.49925 7.27267 5.49925 10.122V12.7413C5.49925 15.0156 4.50257 17.1632 2.76553 18.6315C2.73268 18.6598 2.6809 18.7181 2.6809 18.812C2.6809 18.9396 2.78807 19.0468 2.91588 19.0468H18.4168C18.5444 19.0468 18.6516 18.9396 18.6516 18.812C18.6516 18.7181 18.6 18.6598 18.5688 18.6334C16.8299 17.1632 15.8332 15.0156 15.8332 12.7413V10.122C15.8332 7.27267 13.5156 4.95507 10.6663 4.95507Z" fill="currentColor"/>
<path d="M10.6658 4.95408C10.2768 4.95408 9.96118 4.63843 9.96118 4.24949V1.43115C9.96118 1.04222 10.2768 0.726562 10.6658 0.726562C11.0547 0.726562 11.3704 1.04222 11.3704 1.43115V4.24949C11.3704 4.63843 11.0547 4.95408 10.6658 4.95408Z" fill="currentColor"/>
</svg>
