<svg width="23" height="25" viewBox="0 0 23 25" fill="currentColor" xmlns="http://www.w3.org/2000/svg">
<path d="M21.6753 17.7877L20.7485 17.0931C20.4 16.8323 20.1661 16.4466 20.096 16.017L18.9347 8.96679C18.652 7.13211 17.7222 5.45912 16.3134 4.25031C14.9045 3.0415 13.1097 2.37666 11.2534 2.37598C9.39703 2.3753 7.60171 3.03883 6.19201 4.24661C4.7823 5.45438 3.85126 7.12669 3.56721 8.96117L2.40469 16.0172C2.33467 16.4465 2.10094 16.832 1.75264 17.0926L0.82485 17.7877C0.478544 18.0475 0.222761 18.4097 0.0937354 18.8229C-0.0352902 19.2362 -0.0310165 19.6796 0.105951 20.0902C0.242919 20.5009 0.505637 20.8581 0.856886 21.1111C1.20814 21.3642 1.63011 21.5003 2.06302 21.5002H20.4376C20.8705 21.5002 21.2924 21.364 21.6436 21.1109C21.9948 20.8578 22.2574 20.5006 22.3943 20.09C22.5312 19.6793 22.5354 19.236 22.4063 18.8228C22.2772 18.4096 22.0214 18.0475 21.6751 17.7877H21.6753Z" fill="currentColor"/>
<path d="M12.9377 3.7025C12.7886 3.7025 12.6455 3.64324 12.54 3.53775C12.4345 3.43226 12.3752 3.28918 12.3752 3.14V2.375C12.3752 2.07663 12.2567 1.79048 12.0457 1.5795C11.8348 1.36853 11.5486 1.25 11.2502 1.25C10.9519 1.25 10.6657 1.36853 10.4547 1.5795C10.2438 1.79048 10.1252 2.07663 10.1252 2.375V3.14C10.1252 3.28918 10.066 3.43226 9.96049 3.53775C9.855 3.64324 9.71193 3.7025 9.56274 3.7025C9.41356 3.7025 9.27049 3.64324 9.165 3.53775C9.05951 3.43226 9.00024 3.28918 9.00024 3.14V2.375C9.00024 1.77826 9.2373 1.20597 9.65925 0.78401C10.0812 0.362053 10.6535 0.125 11.2502 0.125C11.847 0.125 12.4193 0.362053 12.8412 0.78401C13.2632 1.20597 13.5002 1.77826 13.5002 2.375V3.14C13.5002 3.28918 13.441 3.43226 13.3355 3.53775C13.23 3.64324 13.0869 3.7025 12.9377 3.7025Z" fill="currentColor"/>
<path d="M7.69824 22.625C8.01633 23.2981 8.51909 23.8669 9.14798 24.2653C9.77686 24.6637 10.506 24.8752 11.2504 24.8752C11.9949 24.8752 12.724 24.6637 13.3529 24.2653C13.9818 23.8669 14.4845 23.2981 14.8026 22.625H7.69824Z" fill="#808080"/>
</svg>
