<svg width="29" height="31" viewBox="0 0 29 31" fill="none" xmlns="http://www.w3.org/2000/svg">
<path d="M1.35229 29.3686V5.71068L2.56136 4.0791H21.5034L22.7125 4.89489V30.1844H2.15834L1.35229 29.3686Z" fill="#FBD984"/>
<ellipse cx="22.3017" cy="24.8817" rx="5.34004" ry="5.30263" fill="#34A853"/>
<rect x="7.9248" y="3.26367" width="9.03699" height="2.44737" fill="white"/>
<path d="M12.1161 2.42188C11.7795 2.42188 11.5063 2.69312 11.5063 3.02734C11.5063 3.36156 11.7795 3.63281 12.1161 3.63281C12.4527 3.63281 12.7258 3.36156 12.7258 3.02734C12.7258 2.69312 12.4527 2.42188 12.1161 2.42188Z" fill="black"/>
<path d="M4.79919 10.4141C4.46262 10.4141 4.18945 10.6853 4.18945 11.0195C4.18945 11.3537 4.46262 11.625 4.79919 11.625C5.13577 11.625 5.40893 11.3537 5.40893 11.0195C5.40893 10.6853 5.13577 10.4141 4.79919 10.4141Z" fill="black"/>
<path d="M4.79919 14.0469C4.46262 14.0469 4.18945 14.3181 4.18945 14.6523C4.18945 14.9866 4.46262 15.2578 4.79919 15.2578C5.13577 15.2578 5.40893 14.9866 5.40893 14.6523C5.40893 14.3181 5.13577 14.0469 4.79919 14.0469Z" fill="black"/>
<path d="M4.79919 17.6797C4.46262 17.6797 4.18945 17.9509 4.18945 18.2852C4.18945 18.6194 4.46262 18.8906 4.79919 18.8906C5.13577 18.8906 5.40893 18.6194 5.40893 18.2852C5.40893 17.9509 5.13577 17.6797 4.79919 17.6797Z" fill="black"/>
<path d="M4.79919 21.3125C4.46262 21.3125 4.18945 21.5837 4.18945 21.918C4.18945 22.2522 4.46262 22.5234 4.79919 22.5234C5.13577 22.5234 5.40893 22.2522 5.40893 21.918C5.40893 21.5837 5.13577 21.3125 4.79919 21.3125Z" fill="black"/>
<path d="M4.79919 24.9453C4.46262 24.9453 4.18945 25.2166 4.18945 25.5508C4.18945 25.885 4.46262 26.1562 4.79919 26.1562C5.13577 26.1562 5.40893 25.885 5.40893 25.5508C5.40893 25.2166 5.13577 24.9453 4.79919 24.9453Z" fill="black"/>
<path d="M19.433 10.4141H7.23816C6.90146 10.4141 6.62842 10.6852 6.62842 11.0195C6.62842 11.3539 6.90146 11.625 7.23816 11.625H19.433C19.7697 11.625 20.0427 11.3539 20.0427 11.0195C20.0427 10.6852 19.7697 10.4141 19.433 10.4141Z" fill="black"/>
<path d="M19.433 14.0469H7.23816C6.90146 14.0469 6.62842 14.318 6.62842 14.6523C6.62842 14.9867 6.90146 15.2578 7.23816 15.2578H19.433C19.7697 15.2578 20.0427 14.9867 20.0427 14.6523C20.0427 14.318 19.7697 14.0469 19.433 14.0469Z" fill="black"/>
<path d="M19.433 17.6797H7.23816C6.90146 17.6797 6.62842 17.9508 6.62842 18.2852C6.62842 18.6195 6.90146 18.8906 7.23816 18.8906H19.433C19.7697 18.8906 20.0427 18.6195 20.0427 18.2852C20.0427 17.9508 19.7697 17.6797 19.433 17.6797Z" fill="black"/>
<path d="M24.7421 23.3062C24.5039 23.0698 24.118 23.0698 23.8798 23.3062L21.872 25.2999L21.0837 24.5171C20.8455 24.2807 20.4595 24.2807 20.2213 24.5171C19.9832 24.7536 19.9832 25.1369 20.2213 25.3734L21.4408 26.5844C21.5599 26.7026 21.7159 26.7617 21.872 26.7617C22.0281 26.7617 22.1841 26.7026 22.3031 26.5844L24.7421 24.1625C24.9802 23.9261 24.9802 23.5427 24.7421 23.3062Z" fill="black"/>
<path d="M23.7014 19.0121V5.44922C23.7014 4.44765 22.8808 3.63281 21.8722 3.63281H17.4991C17.2474 2.92811 16.5697 2.42188 15.7748 2.42188H15.1037C14.8205 1.04177 13.5886 0 12.1163 0C10.644 0 9.41212 1.04177 9.12889 2.42188H8.45787C7.66301 2.42188 6.98523 2.92811 6.73353 3.63281H2.36047C1.35184 3.63281 0.53125 4.44765 0.53125 5.44922V29.1836C0.53125 30.1852 1.35184 31 2.36047 31H22.4819C25.8441 31 28.5793 28.2839 28.5793 24.9453C28.5793 22.0374 26.5176 19.5766 23.7014 19.0121ZM7.84813 4.23828C7.84813 3.90443 8.12166 3.63281 8.45787 3.63281H9.67735C10.0141 3.63281 10.2871 3.36168 10.2871 3.02734C10.2871 2.02578 11.1077 1.21094 12.1163 1.21094C13.1249 1.21094 13.9455 2.02578 13.9455 3.02734C13.9455 3.36168 14.2186 3.63281 14.5553 3.63281H15.7748C16.111 3.63281 16.3845 3.90443 16.3845 4.23828V4.84375H7.84813V4.23828ZM2.36047 29.7891C2.02426 29.7891 1.75073 29.5174 1.75073 29.1836V5.44922C1.75073 5.11536 2.02426 4.84375 2.36047 4.84375H6.62865V5.44922C6.62865 5.78356 6.90169 6.05469 7.23839 6.05469H16.9942C17.3309 6.05469 17.604 5.78356 17.604 5.44922V4.84375H21.8722C22.2084 4.84375 22.4819 5.11536 22.4819 5.44922V18.8906C20.5535 18.8906 18.7542 19.7904 17.6044 21.3125H7.23839C6.90169 21.3125 6.62865 21.5836 6.62865 21.918C6.62865 22.2523 6.90169 22.5174 7.23839 22.5174H16.8925C16.5586 23.276 16.3845 24.1035 16.3845 24.9453H7.23839C6.90169 24.9453 6.62865 25.2164 6.62865 25.5508C6.62865 25.8851 6.90169 26.1562 7.23839 26.1562H16.5068C16.8094 27.6448 17.6529 28.9209 18.8177 29.7891H2.36047ZM22.4819 29.7891C19.9909 29.7891 17.9068 27.9384 17.6339 25.4848C17.614 25.305 17.604 25.1235 17.604 24.9453C17.604 23.9824 17.8875 23.0529 18.424 22.2567C18.4243 22.2564 18.4244 22.2561 18.4246 22.2558C18.4249 22.2554 18.425 22.255 18.4253 22.2547C19.3339 20.9065 20.8503 20.1016 22.4819 20.1016C22.6613 20.1016 22.8441 20.1116 23.0252 20.1312C25.4964 20.4025 27.3598 22.472 27.3598 24.9453C27.3598 27.6162 25.1716 29.7891 22.4819 29.7891Z" fill="black"/>
</svg>
