<svg width="20" height="24" viewBox="0 0 20 24" fill="currentColor" xmlns="http://www.w3.org/2000/svg">
<path d="M19.1699 13.8377V3.37043C19.6456 3.25844 20 2.8418 20 2.34617V1.92518C20 1.34395 19.5128 0.871094 18.9139 0.871094H1.08621C0.487285 0.871094 0 1.34395 0 1.92522V2.34621C0 2.84184 0.354433 3.25848 0.830198 3.37047V4.98952C0.830198 5.22967 1.02491 5.42429 1.26497 5.42429C1.50502 5.42429 1.69978 5.22967 1.69978 4.98952V3.40033H18.3003V13.808H1.69978V7.98801C1.69978 7.74786 1.50507 7.55324 1.26501 7.55324C1.02496 7.55324 0.830241 7.74791 0.830241 7.98801V13.8377C0.35452 13.9497 4.35317e-05 14.3664 4.35317e-05 14.862V15.283C4.35317e-05 15.8643 0.487329 16.3371 1.08625 16.3371H3.87829L1.94632 22.5654C1.90541 22.6974 1.92958 22.8409 2.01152 22.9522C2.09347 23.0634 2.22337 23.1291 2.36157 23.1291H4.09917C4.28971 23.1291 4.45799 23.0051 4.51442 22.8231L6.52638 16.3372H8.73544V22.6943C8.73544 22.9345 8.93016 23.1291 9.17022 23.1291H10.8299C11.07 23.1291 11.2646 22.9344 11.2646 22.6943V16.3372H13.4738L15.4857 22.8231C15.5421 23.0051 15.7105 23.1291 15.901 23.1291H17.6386C17.7767 23.1291 17.9067 23.0635 17.9886 22.9522C18.0706 22.841 18.0947 22.6975 18.0538 22.5655L16.1218 16.3372H18.9138C19.5127 16.3372 20 15.8643 20 15.283V14.862C20 14.3664 19.6456 13.9498 19.1699 13.8377ZM1.08621 2.53079C0.968789 2.53079 0.869541 2.44628 0.869541 2.34621V1.92522C0.869541 1.82519 0.968745 1.74063 1.08621 1.74063H18.9138C19.0312 1.74063 19.1304 1.82515 19.1304 1.92522V2.34621C19.1304 2.44624 19.0313 2.53079 18.9138 2.53079H1.08621ZM3.77878 22.2595H2.95166L4.78873 16.3371H5.61593L3.77878 22.2595ZM10.3951 22.2595H9.60503V16.3372H10.3951V22.2595ZM17.0484 22.2595H16.2213L14.3842 16.3371H15.2114L17.0484 22.2595ZM19.1304 15.283C19.1305 15.3831 19.0313 15.4676 18.9139 15.4676H1.08621C0.968789 15.4676 0.869541 15.3831 0.869541 15.283V14.862C0.869541 14.762 0.968745 14.6775 1.08621 14.6775H18.9138C19.0312 14.6775 19.1304 14.762 19.1304 14.862V15.283Z" fill="currentColor"/>
</svg>
