<svg width="24" height="25" viewBox="0 0 24 25" xmlns="http://www.w3.org/2000/svg">
<path d="M22.9453 8.36679H22.2893L22.3541 6.08032L19.5127 4.54562L17.978 1.70431L14.75 1.79581L12.0002 0.102539L9.2504 1.79577L6.02238 1.70427L4.48768 4.54558L1.64637 6.08028L1.7112 8.36674H1.05515C0.473587 8.36674 0.000488281 8.83989 0.000488281 9.4214V14.6947C0.000488281 15.2762 0.473587 15.7494 1.05515 15.7494H1.7112L1.64637 18.0358L4.48768 19.5705L6.02243 22.4119L9.25045 22.3204L12.0002 24.0137L14.75 22.3205L17.978 22.412L19.5127 19.5706L22.354 18.0359L22.2892 15.7495H22.9453C23.5268 15.7495 23.9999 15.2763 23.9999 14.6948V9.4215C23.9999 8.83993 23.5268 8.36679 22.9453 8.36679ZM2.36148 6.49319L5.00653 5.06443L6.43525 2.41938L9.44033 2.50455L12.0002 0.92827L14.5601 2.50459L17.5651 2.41942L18.9939 5.06447L21.6389 6.49324L21.5858 8.36683H19.9776C18.5403 5.26247 15.4346 3.26925 12.0002 3.26925C10.4049 3.26925 8.84227 3.70143 7.48133 4.519L7.84343 5.12166C9.09501 4.3698 10.5324 3.97236 12.0002 3.97236C15.0495 3.97236 17.8172 5.6803 19.1955 8.36679H4.80488C5.38837 7.23145 6.23561 6.24555 7.2787 5.49379L6.86757 4.92334C5.63703 5.81024 4.65793 6.99751 4.02335 8.36679H2.41459L2.36148 6.49319ZM21.6389 17.623L18.9939 19.0518L17.5651 21.6968L14.5601 21.6117L12.0002 23.1879L9.44033 21.6116L6.43525 21.6968L5.00653 19.0517L2.36148 17.623L2.41459 15.7494H4.02279C5.46013 18.8538 8.56586 20.847 12.0002 20.847C15.4346 20.847 18.5403 18.8538 19.9776 15.7494H21.5858L21.6389 17.623ZM23.2968 14.6948C23.2968 14.8886 23.1391 15.0463 22.9453 15.0463H13.0549V15.7494H19.1955C17.8172 18.4359 15.0496 20.1439 12.0002 20.1439C8.95088 20.1439 6.18316 18.4359 4.80488 15.7494H10.9455V15.0463H1.05515C0.861328 15.0463 0.703597 14.8886 0.703597 14.6948V9.42145C0.703597 9.22758 0.861328 9.0699 1.05515 9.0699H22.9453C23.1391 9.0699 23.2968 9.22758 23.2968 9.42145V14.6948Z" fill="currentColor"/>
<path d="M11.6487 15.0469H12.3521V15.7503H11.6487V15.0469Z" fill="currentColor"/>
<path d="M14.1096 5.37891H14.8131V6.08234H14.1096V5.37891Z" fill="currentColor"/>
<path d="M15.5159 6.08203H16.2193V6.78547H15.5159V6.08203Z" fill="currentColor"/>
<path d="M11.3614 10.2859L10.0811 13.6476L10.7381 13.8978L11.0433 13.0966H12.2757L12.5778 13.8972L13.2356 13.6489L11.9662 10.2852L11.3614 10.2859ZM11.311 12.3935L11.6623 11.4713L12.0103 12.3935H11.311Z" fill="currentColor"/>
<path d="M16.6363 12.4136L15.2992 10.2857L14.6284 10.2855V13.8305H15.3315V11.6587L16.6686 13.7866H17.3394V10.2803H16.6363V12.4136Z" fill="currentColor"/>
<path d="M19.8423 10.2803H18.7083V13.7462H19.8682L19.8713 13.7462C20.7047 13.7315 21.3096 13.0028 21.3096 12.0132C21.3096 10.9767 20.7199 10.2803 19.8423 10.2803ZM19.8617 13.0432H19.4114V10.9834H19.8423C20.2117 10.9834 20.6065 11.2539 20.6065 12.0133C20.6065 12.7101 20.2209 13.0352 19.8617 13.0432Z" fill="currentColor"/>
<path d="M4.71225 11.8429C4.8157 11.6846 4.87589 11.4956 4.87589 11.2928C4.87589 10.7377 4.42431 10.2861 3.86918 10.2861H2.69067V13.8363H4.01369C4.63008 13.8363 5.13159 13.3333 5.13159 12.715C5.13159 12.3627 4.96776 12.0479 4.71225 11.8429ZM3.39378 10.9892H3.86923C4.03661 10.9892 4.17283 11.1254 4.17283 11.2928C4.17283 11.4606 4.03666 11.5972 3.86927 11.5972H3.39378V10.9892ZM4.01369 13.1333H3.39378V12.3003H4.01369C4.24239 12.3003 4.42848 12.4863 4.42848 12.715C4.42848 12.9457 4.24239 13.1333 4.01369 13.1333Z" fill="currentColor"/>
<path d="M8.74318 11.3776C8.74318 10.7757 8.23479 10.2861 7.60986 10.2861H6.50134L6.50073 13.8363L7.20384 13.8364L7.20408 12.6572L8.26385 13.91L8.80065 13.4559L7.92851 12.4249C8.3987 12.2919 8.74318 11.8729 8.74318 11.3776ZM7.20431 10.9892H7.60982C7.84301 10.9892 8.04002 11.167 8.04002 11.3775C8.04002 11.5881 7.84301 11.7659 7.60789 11.7659L7.20412 11.7681L7.20431 10.9892Z" fill="currentColor"/>
</svg>
