<svg width="19" height="19" viewBox="0 0 19 19" fill="currentColor" xmlns="http://www.w3.org/2000/svg">
<path d="M15.3535 13.1282C16.1435 13.12 16.8342 12.5864 17.0369 11.8212L18.9851 4.56634C19.0471 4.33058 18.9106 4.09068 18.6748 4.0245C18.6376 4.01623 18.6004 4.00796 18.5632 4.00796H3.90869L2.91187 0.326758C2.86224 0.136494 2.68852 0 2.48998 0H0V0.881006H2.14254L3.10627 4.47948C3.10213 4.50844 3.10213 4.53739 3.10627 4.56634L5.09163 11.846C5.10404 11.9039 5.12472 11.966 5.14541 12.0239L5.81547 14.4642C5.17022 14.8075 4.73179 15.4859 4.73179 16.2676C4.73179 17.3968 5.64588 18.3109 6.77506 18.3109C7.90424 18.3109 8.81833 17.3968 8.81833 16.2676C8.81833 15.916 8.72733 15.581 8.57016 15.2915C8.53294 15.2253 8.49571 15.1591 8.45021 15.0929H13.6494C13.4178 15.4238 13.2771 15.8292 13.2771 16.2676C13.2771 17.3968 14.1912 18.3109 15.3204 18.3109C16.4496 18.3109 17.3637 17.3968 17.3637 16.2676C17.3637 15.734 17.161 15.2501 16.826 14.8861C16.4661 14.4766 15.9367 14.216 15.3452 14.2119H6.69647L6.38626 13.0745C6.51862 13.1076 6.65511 13.1282 6.7916 13.1282H15.3535ZM15.3245 15.0929C15.9739 15.0929 16.4992 15.6182 16.4992 16.2676C16.4992 16.917 15.9739 17.4423 15.3245 17.4423C14.6752 17.4423 14.1499 16.917 14.1499 16.2676C14.1499 15.6182 14.6752 15.0929 15.3245 15.0929ZM6.77506 15.0929C7.42444 15.0929 7.9456 15.6224 7.9456 16.2676C7.9456 16.917 7.4203 17.4423 6.77092 17.4423C6.12154 17.4423 5.60038 16.917 5.60038 16.2676C5.60038 15.6182 6.12568 15.0929 6.77506 15.0929ZM5.98919 11.6888L5.00064 8.07382L4.11963 4.89724H17.9717L16.1807 11.6227C16.0815 12.0073 15.7382 12.2762 15.3411 12.2845H6.78333C6.42348 12.2638 6.10913 12.0321 5.98919 11.6888Z" fill="currentColor"/>
</svg>
