<svg width="36" height="30" viewBox="0 0 36 30" fill="none" xmlns="http://www.w3.org/2000/svg">
<path d="M25.3583 14.3609C25.3583 15.2526 24.8192 15.9756 24.154 15.9756C23.4889 15.9756 23.1025 15.1453 23.1025 14.2535C23.1025 13.3617 23.4889 12.7461 24.154 12.7461C24.8192 12.746 25.3583 13.469 25.3583 14.3609Z" fill="#E8916F"/>
<path d="M32.9314 14.3609C32.9314 15.2526 33.4706 15.9756 34.1357 15.9756C34.8008 15.9756 35.1872 15.1453 35.1872 14.2535C35.1872 13.3617 34.8008 12.7461 34.1357 12.7461C33.4706 12.746 32.9314 13.469 32.9314 14.3609Z" fill="#D98868"/>
<path d="M30.3727 19.3672H27.9165V23.2818H30.3727V19.3672Z" fill="#D98868"/>
<path d="M24.7234 15.8577V12.5494C24.7234 10.2612 26.5914 8.40625 28.8958 8.40625H29.3933C31.6977 8.40625 33.5657 10.2612 33.5657 12.5494V15.8577C33.5657 18.2824 31.5863 20.2479 29.1446 20.2479C26.7028 20.248 24.7234 18.2824 24.7234 15.8577Z" fill="#EBAD88"/>
<path d="M29.3934 8.40625H28.8958C28.7306 8.40625 28.5679 8.41687 28.4077 8.43549C30.482 8.67639 32.0921 10.4316 32.0921 12.5624V15.844C32.0921 18.0262 30.4987 19.8373 28.4077 20.1867C28.6474 20.2268 28.8935 20.248 29.1446 20.248C31.5864 20.248 33.5658 18.2762 33.5658 15.844V12.5624C33.5658 10.267 31.6977 8.40625 29.3934 8.40625Z" fill="#E8916F"/>
<path d="M34.8924 26.1741V27.0011H23.3972V26.1741C23.3972 23.7696 25.0973 21.8203 27.1947 21.8203H31.0949C33.1922 21.8203 34.8924 23.7696 34.8924 26.1741Z" fill="#47D5E6"/>
<path d="M31.0948 21.8203H29.0112C31.1086 21.8203 32.8087 23.7696 32.8087 26.1741V27.0011H34.8923V26.1741C34.8923 23.7696 33.1922 21.8203 31.0948 21.8203Z" fill="#22C0D4"/>
<path d="M27.304 21.8203H30.9857L29.1449 27.0011L27.304 21.8203Z" fill="#DCDFE8"/>
<path d="M29.1448 27.0004L27.7905 21.3242L26.3088 21.8197V24.0075L29.1448 27.0004Z" fill="#20B5C7"/>
<path d="M29.1448 27.0004L30.499 21.3242L31.9807 21.8197V24.0075L29.1448 27.0004Z" fill="#20B5C7"/>
<path d="M24.7046 13.4416C24.7046 13.4416 25.0725 13.5894 25.4501 12.8837C25.8819 12.0767 27.02 11.626 28.3838 11.6751C30.0762 11.7361 30.7712 11.1426 31.1074 10.5465C31.5724 12.0767 32.2265 11.6751 32.6517 12.9801C32.8955 13.7283 33.5347 13.4416 33.5347 13.4416C33.5347 13.4416 35.2938 12.4256 34.3871 10.8124C34.5429 7.57063 31.9906 7.37856 31.9906 7.37856C31.9906 7.37856 30.8241 5.90297 27.6266 6.67049C23.0124 7.778 23.8316 11.0077 23.8316 11.0077C23.8316 11.0077 23.0381 12.5374 24.7046 13.4416Z" fill="#FFD659"/>
<path d="M34.387 10.8125C34.5428 7.57072 31.9905 7.37865 31.9905 7.37865C31.9905 7.37865 30.9784 6.10058 28.2585 6.54348C28.8428 6.66092 29.254 6.86858 29.5196 7.04748C29.8008 7.23685 30.1065 7.38899 30.4277 7.49858C31.1653 7.7501 32.4137 8.51623 32.3034 10.8125C32.6619 11.4504 32.6029 11.9944 32.4014 12.4197C32.4905 12.5654 32.5747 12.7447 32.6515 12.9802C32.8952 13.7284 33.5345 13.4417 33.5345 13.4417C33.5345 13.4417 35.2937 12.4257 34.387 10.8125Z" fill="#FFBD54"/>
<path d="M7.93964 19.3672H5.4834V23.2818H7.93964V19.3672Z" fill="#D98868"/>
<path d="M2.29004 15.8577V12.5494C2.29004 10.2612 4.15809 8.40625 6.46244 8.40625H6.95999C9.26434 8.40625 11.1324 10.2612 11.1324 12.5494V15.8577C11.1324 18.2824 9.15294 20.2479 6.71121 20.2479C4.26949 20.248 2.29004 18.2824 2.29004 15.8577Z" fill="#EBAD88"/>
<path d="M6.96027 8.40625H6.46272C6.29749 8.40625 6.13484 8.41687 5.97461 8.43549C8.04886 8.67639 9.65897 10.4316 9.65897 12.5624V15.844C9.65897 18.0262 8.0656 19.8373 5.97461 20.1867C6.21429 20.2268 6.46036 20.248 6.71149 20.248C9.15329 20.248 11.1327 18.2762 11.1327 15.844V12.5624C11.1327 10.267 9.26462 8.40625 6.96027 8.40625Z" fill="#E8916F"/>
<path d="M12.459 26.1731V27.0001H0.963867V26.1731C0.963867 23.7686 2.66398 21.8193 4.76136 21.8193H8.66151C10.7589 21.8193 12.459 23.7686 12.459 26.1731Z" fill="#FF2C5C"/>
<path d="M8.66144 21.8193H6.57788C8.67526 21.8193 10.3754 23.7686 10.3754 26.1731V27.0001H12.4589V26.1731C12.4589 23.7686 10.7588 21.8193 8.66144 21.8193Z" fill="#E62753"/>
<path d="M4.87061 21.8193H8.55239L6.7115 27.0001L4.87061 21.8193Z" fill="#DCDFE8"/>
<path d="M6.71142 27.0004L5.35718 21.3242L3.87549 21.8197V24.0075L6.71142 27.0004Z" fill="#D6244D"/>
<path d="M6.71143 27.0004L8.06567 21.3242L9.54736 21.8197V24.0075L6.71143 27.0004Z" fill="#D6244D"/>
<path d="M7.5664 10.5487C7.5664 10.5487 4.9857 11.7029 4.09442 13.1936C2.86853 15.2437 2.89165 17.3606 2.22825 19.3675C2.22825 19.3675 0.669189 17.2199 0.669189 14.9658C0.669189 5.29349 7.77934 6.46445 8.0968 7.19921C9.53092 6.60225 12.4066 7.83631 12.4066 13.5023C12.4066 16.418 12.0531 18.3625 11.0821 19.5522C11.0821 19.5522 10.4862 17.0222 10.2351 14.8439C9.77539 10.8551 7.5664 10.5487 7.5664 10.5487Z" fill="#FFD659"/>
<path d="M8.09678 7.19905C7.96891 6.90312 6.73913 6.53664 5.31592 6.83609C5.56768 6.89705 5.75819 7.05333 5.99127 7.46615C6.30186 8.01636 6.76594 8.46877 7.34142 8.73291C8.89047 9.44402 9.86746 10.9286 10.3323 13.5021C10.442 14.1096 10.3163 14.6926 10.2821 15.2248C10.5532 17.3063 11.0821 19.552 11.0821 19.552C12.0531 18.3624 12.4065 16.4179 12.4065 13.5021C12.4065 7.83615 9.53096 6.60209 8.09678 7.19905Z" fill="#FFBD54"/>
<path d="M12.5747 11.6684C12.5747 12.9253 11.8124 13.9443 10.8721 13.9443C9.93181 13.9443 9.3855 12.7742 9.3855 11.5172C9.3855 10.2602 9.93174 9.39258 10.8721 9.39258C11.8124 9.39258 12.5747 10.4115 12.5747 11.6684Z" fill="#E8916F"/>
<path d="M23.2815 11.6684C23.2815 12.9253 24.0438 13.9443 24.9841 13.9443C25.9244 13.9443 26.4707 12.7742 26.4707 11.5172C26.4707 10.2602 25.9245 9.39258 24.9841 9.39258C24.0437 9.39258 23.2815 10.4115 23.2815 11.6684Z" fill="#D98868"/>
<path d="M19.6643 18.7246H16.1917V24.2418H19.6643V18.7246Z" fill="#D98868"/>
<path d="M11.6775 13.7591V9.13395C11.6775 5.89892 14.3185 3.27637 17.5764 3.27637H18.2799C21.5378 3.27637 24.1788 5.89892 24.1788 9.13395V13.7591C24.1788 17.1871 21.3804 19.966 17.9282 19.966C14.476 19.966 11.6775 17.1871 11.6775 13.7591Z" fill="#EBAD88"/>
<path d="M18.2797 3.27637H17.5762C17.3427 3.27637 17.1127 3.29133 16.8862 3.31761C19.8188 3.65713 22.0951 6.13092 22.0951 9.13402V13.7591C22.0951 16.8346 19.8425 19.3871 16.8862 19.8797C17.2251 19.9362 17.573 19.966 17.928 19.966C21.3802 19.966 24.1787 17.1871 24.1787 13.7591V9.13395C24.1786 5.89892 21.5376 3.27637 18.2797 3.27637Z" fill="#E8916F"/>
<path d="M26.054 28.3178V29.4834H9.80225V28.3178C9.80225 24.9288 12.2059 22.1816 15.1712 22.1816H20.6852C23.6503 22.1816 26.054 24.9288 26.054 28.3178Z" fill="#685C79"/>
<path d="M20.6849 22.1816H18.6013C21.5666 22.1816 23.9702 24.9289 23.9702 28.3178V29.4834H26.0538V28.3178C26.0538 24.9288 23.6501 22.1816 20.6849 22.1816Z" fill="#594F69"/>
<path d="M15.3252 22.1816H20.5305L17.9278 29.4834L15.3252 22.1816Z" fill="#FFD659"/>
<path d="M17.9281 29.4834L16.0135 21.4834L13.9187 22.1817V25.2652L14.9346 25.9968V27.3228L17.9281 29.4834Z" fill="#50475E"/>
<path d="M17.928 29.4834L19.8426 21.4834L21.9374 22.1817V25.2652L20.9214 25.9968V27.3228L17.928 29.4834Z" fill="#50475E"/>
<path d="M11.6505 10.3726C11.6505 10.3726 12.1706 10.5808 12.7045 9.58628C13.315 8.44883 14.9239 7.81359 16.8521 7.88283C19.2449 7.96876 20.2274 7.13235 20.7028 6.29221C21.3602 8.44883 22.2849 7.88283 22.886 9.72207C23.2307 10.7768 24.1344 10.3726 24.1344 10.3726C24.1344 10.3726 26.6214 8.94063 25.3396 6.66704C25.5598 2.09808 21.9514 1.82739 21.9514 1.82739C21.9514 1.82739 20.3022 -0.252334 15.7815 0.829459C9.25811 2.39042 10.4163 6.94221 10.4163 6.94221C10.4163 6.94221 9.29457 9.09821 11.6505 10.3726Z" fill="#8C4A37"/>
<path d="M25.3394 6.66688C25.5596 2.09792 21.9513 1.82723 21.9513 1.82723C21.9513 1.82723 20.6383 0.171988 17.1448 0.583229C19.0915 0.848677 19.8677 1.82723 19.8677 1.82723C19.8677 1.82723 23.4761 2.09785 23.2559 6.66688C24.0116 8.00736 23.4572 9.05509 22.8749 9.68943C22.8785 9.70033 22.8822 9.71088 22.8858 9.72191C23.2305 10.7766 24.1342 10.3724 24.1342 10.3724C24.1342 10.3724 26.6212 8.94046 25.3394 6.66688Z" fill="#804231"/>
<path d="M32.4136 21.5342C32.3511 21.4406 32.259 21.3666 32.1465 21.329L30.8932 20.91V20.4475C31.3489 20.2765 31.7759 20.0406 32.1654 19.7415C32.3929 19.5668 32.4348 19.2419 32.2588 19.0159C32.0828 18.79 31.7558 18.7485 31.5281 18.9232C29.9792 20.1124 27.7757 19.9758 26.3859 18.5957C24.8279 17.0486 25.3462 15.3047 25.2439 14.4412C26.0699 14.3081 26.6951 13.5382 26.9113 12.3831C27.3284 12.2387 27.824 12.1716 28.3641 12.1909C29.4812 12.2312 30.3475 12.0056 30.954 11.5183C31.1632 11.8799 31.3856 12.0845 31.5783 12.2619C31.82 12.4843 31.9946 12.645 32.1555 13.1392C32.3577 13.7581 32.7803 13.9356 33.0137 13.9862C33.0241 13.9885 33.0344 13.9901 33.0448 13.992V15.8575C33.0448 16.3936 32.9366 16.9124 32.7235 17.3995C32.6088 17.6615 32.7297 17.9662 32.9936 18.0801C33.2568 18.1937 33.564 18.0744 33.6789 17.8119C33.8646 17.3877 33.9858 16.9445 34.0446 16.489C35.1521 16.5593 35.7076 15.3732 35.7076 14.2532C35.7076 13.4674 35.4508 12.8548 35.009 12.5175C35.2449 11.9328 35.2142 11.3048 34.9123 10.6938C34.9914 7.7005 32.9279 7.03429 32.2454 6.89616C31.8008 6.48188 30.374 5.47809 27.5037 6.16705C26.9269 6.30574 26.4037 6.48416 25.9383 6.69788C25.9152 6.64754 25.8918 6.59719 25.866 6.54698C25.9456 4.05285 24.9206 2.7625 24.0368 2.11699C23.3094 1.58568 22.5624 1.40133 22.2051 1.34002C21.7047 0.853885 19.9707 -0.468114 16.3991 0.171196C16.1159 0.221816 15.9278 0.490851 15.9788 0.771954C16.0298 1.05313 16.3009 1.23982 16.5838 1.18926C20.1685 0.547954 21.491 2.08561 21.542 2.14699C21.631 2.26437 21.762 2.32995 21.9094 2.34257C22.0361 2.3534 25.0117 2.65368 24.8196 6.64223C24.8061 6.92154 25.0162 7.0234 25.138 7.54857C25.1383 7.54974 25.1384 7.55085 25.1387 7.55202C25.3568 8.4925 24.7268 9.3836 23.905 9.90526C23.611 9.99705 23.4762 9.85188 23.3815 9.5616C23.0528 8.55705 22.6123 8.15278 22.2236 7.79616C21.8376 7.44202 21.5043 7.13623 21.201 6.14181C21.1405 5.94347 20.9666 5.80002 20.759 5.77754C20.5513 5.75498 20.3505 5.85774 20.2483 6.03843C20.0498 6.38954 19.4449 7.45774 16.871 7.36581C14.714 7.28823 12.9408 8.04547 12.2448 9.34277C12.0505 9.70457 11.8806 9.83298 11.8038 9.8647C10.9297 9.35822 10.5038 8.6196 10.7278 7.63119C10.7888 7.3596 10.8788 7.17947 10.8787 7.17947C10.9363 7.06885 10.9511 6.93885 10.9216 6.81781C10.8876 6.67836 10.139 3.38347 14.5353 1.74388C14.8046 1.6434 14.9409 1.34526 14.8398 1.07782C14.7387 0.810368 14.4383 0.675127 14.169 0.775471C11.4321 1.79623 10.4147 3.4383 10.0431 4.63602C9.76299 5.53899 9.79994 6.32664 9.85425 6.74685C9.30724 6.53423 8.73836 6.48602 8.22143 6.61429C7.61394 6.22512 6.40721 6.08492 5.24215 6.32264C4.26746 6.52154 2.87752 7.07485 1.7908 8.58133C0.700892 10.0924 0.148193 12.2403 0.148193 14.9656C0.148193 17.3589 1.73809 19.5762 1.80573 19.6695C2.05319 20.0103 2.58999 19.9319 2.72326 19.528C2.78494 19.3411 2.83994 19.155 2.89085 18.9701C2.99323 19.0937 3.10143 19.213 3.21637 19.3272C3.71289 19.8202 4.31087 20.2026 4.96261 20.4478V20.9101L3.70927 21.3291C3.59676 21.3667 3.50474 21.4406 3.44223 21.5343C1.66169 22.1736 0.44267 24.0337 0.44267 26.1731V27C0.44267 27.2857 0.67589 27.5172 0.96356 27.5172C1.86762 27.5172 8.35652 27.5172 9.32384 27.5172C9.29613 27.7801 9.28106 28.0469 9.28106 28.3172V29.4828C9.28106 29.7684 9.51428 30 9.80195 30H26.0537C26.3414 30 26.5746 29.7684 26.5746 29.4828V28.3172C26.5746 28.0469 26.5596 27.7801 26.5318 27.5172C27.4918 27.5172 33.994 27.5172 34.8921 27.5172C35.1798 27.5172 35.413 27.2857 35.413 27V26.1731C35.4131 24.0337 34.1941 22.1736 32.4136 21.5342ZM26.8294 22.1909L27.415 21.9951L28.1883 25.2361L26.8294 23.802V22.1909V22.1909ZM28.5671 22.3366H29.7217L29.1444 24.7563L28.5671 22.3366ZM30.8738 21.9951L31.4594 22.1909V23.8021L30.1005 25.2362L30.8738 21.9951ZM29.8514 20.7146V21.3021H28.4374V20.7146C28.9068 20.7815 29.3815 20.7816 29.8514 20.7146ZM27.3956 20.4477V20.91L26.1423 21.329C26.0295 21.3667 25.9374 21.4408 25.8749 21.5347C25.1748 21.7873 24.5434 22.2382 24.0411 22.8431C23.5489 22.459 22.9989 22.1562 22.4042 21.9526C22.3442 21.8317 22.2377 21.7355 22.1031 21.6906L20.1851 21.0512V20.0996C21.9332 19.4856 23.3614 18.1732 24.1164 16.4913C24.1477 16.4921 24.1583 16.4941 24.2439 16.4887C24.4788 18.3149 25.7196 19.8173 27.3956 20.4477ZM15.2403 25.5775L14.4394 25.0007V22.553L15.6384 22.1533L17.0957 28.2427L15.4553 27.0588V25.9962C15.4553 25.8305 15.3753 25.6748 15.2403 25.5775ZM13.7527 21.6907C13.6181 21.7356 13.5116 21.8318 13.4516 21.9528C12.8568 22.1564 12.3069 22.4591 11.8147 22.8432C11.3124 22.2384 10.6809 21.7874 9.98093 21.5348C9.91842 21.4409 9.82626 21.3668 9.71354 21.3292L8.46021 20.9101V20.4468C9.22765 20.1585 9.90793 19.6861 10.4417 19.0765C10.5194 19.4342 10.5709 19.6532 10.5748 19.6699C10.6734 20.0881 11.2145 20.2112 11.4867 19.8776C11.9373 19.3254 12.2686 18.642 12.4998 17.7784C12.6943 18.0368 12.9072 18.2828 13.1396 18.5136C13.8548 19.2238 14.7237 19.7669 15.6706 20.0996V21.0516L13.7527 21.6907ZM4.39636 22.1909L4.98198 21.9951L5.75526 25.2361L4.39636 23.802V22.1909ZM7.41843 20.7146V21.3021H6.00439V20.7146C6.47388 20.7816 6.94852 20.7816 7.41843 20.7146ZM7.28869 22.3366L6.71141 24.7563L6.13412 22.3366H7.28869V22.3366ZM8.44076 21.9951L9.02638 22.1909V23.8021L7.66748 25.2362L8.44076 21.9951ZM11.1563 13.3728C10.8394 13.4957 10.5895 13.4122 10.3831 13.1708C9.78313 12.4693 9.70798 10.6103 10.3974 10.0681C10.6086 10.295 10.8626 10.5006 11.1563 10.6835V13.3728V13.3728ZM11.1902 14.4329C11.2587 15.1215 11.4328 15.7891 11.7106 16.4257C11.6163 17.0721 11.4813 17.6301 11.302 18.1037C11.2738 17.9647 11.2447 17.8181 11.2151 17.6655C11.2144 17.6615 11.2137 17.6576 11.2129 17.6537C11.002 16.5704 10.8471 15.6051 10.7523 14.785C10.7395 14.6731 10.7246 14.563 10.7086 14.4537C10.8583 14.4686 11.0122 14.4648 11.1902 14.4329ZM19.1433 21.6635H16.7125V20.3741C17.5025 20.5164 18.3245 20.5216 19.1433 20.3741V21.6635ZM19.0163 22.698L17.9279 27.2456L16.8395 22.6979H19.0163V22.698ZM20.2174 22.1534L21.4164 22.553V25.0008L20.6156 25.5775C20.4805 25.6748 20.4005 25.8305 20.4005 25.9962V27.0588L18.76 28.2427L20.2174 22.1534ZM24.6995 13.3719V10.6161C24.8873 10.4773 25.1316 10.2742 25.3707 10.0086C25.7924 10.2512 25.9496 10.913 25.9496 11.5173C25.9496 12.4023 25.5746 13.7106 24.6995 13.3719ZM34.1352 15.458C34.119 15.458 34.1028 15.4558 34.0866 15.4537V13.6873C34.1878 13.6084 34.3048 13.508 34.4238 13.387C34.8836 13.8753 34.6331 15.458 34.1352 15.458ZM27.7486 7.1725C30.4879 6.51492 31.5097 7.61602 31.5829 7.70022C31.6727 7.81981 31.7971 7.88222 31.9474 7.89347C31.9527 7.89395 32.4811 7.94547 32.972 8.32105C33.6202 8.81691 33.921 9.64664 33.8663 10.7872C33.8617 10.8836 33.8844 10.9795 33.9317 11.0638C34.2129 11.5642 34.1906 12.005 33.8612 12.4515C33.6625 12.7215 33.409 12.9046 33.3071 12.9722C33.2348 12.9857 33.2018 12.9889 33.1467 12.8204C32.9023 12.0697 32.5752 11.7686 32.2865 11.503C32.0193 11.2571 31.8082 11.0628 31.6059 10.3964C31.5455 10.1977 31.3714 10.0542 31.1637 10.0315C30.9563 10.0091 30.7548 10.1119 30.6527 10.2929C30.5234 10.5222 30.1299 11.2193 28.4018 11.157C27.8997 11.139 27.4213 11.183 26.9853 11.2851C26.9353 10.2854 26.5606 9.52629 25.9529 9.14657C26.17 8.68553 26.2583 8.20147 26.2157 7.71319C26.6553 7.49381 27.1684 7.31202 27.7486 7.1725ZM13.1641 9.82946C13.6636 8.8985 15.1039 8.33726 16.8333 8.39974C18.4822 8.45878 19.7268 8.09788 20.5475 7.32526C20.8593 7.95298 21.2031 8.26836 21.5166 8.55602C21.8683 8.87871 22.1461 9.1336 22.3906 9.88098C22.5854 10.4775 22.9366 10.7393 23.197 10.8538C23.3555 10.9235 23.5125 10.9544 23.6577 10.9628V13.7587C23.6577 14.4295 23.5414 15.0864 23.3122 15.7108C22.6866 17.4106 21.2689 18.7247 19.5197 19.2259C18.4901 19.5211 17.3658 19.5212 16.3359 19.2259C15.4115 18.9612 14.561 18.4619 13.8763 17.782C13.3927 17.3018 13.0039 16.748 12.7205 16.1355C12.3738 15.3883 12.198 14.5886 12.198 13.7588V10.8208C12.4949 10.6997 12.8449 10.4238 13.1641 9.82946ZM3.21499 17.5757C3.23568 17.475 3.25652 17.3744 3.27708 17.2735C3.53766 15.9942 3.7838 14.7859 4.46609 13.5879C4.60771 13.3393 4.5195 13.0237 4.26913 12.883C4.01882 12.7424 3.70094 12.8299 3.55933 13.0786C2.6095 14.7464 2.42698 16.3904 2.04854 18.0483C1.64593 17.263 1.18997 16.119 1.18997 14.9656C1.18997 10.1823 2.95975 8.35622 4.44442 7.66657C5.9257 6.9785 7.36669 7.2796 7.65922 7.47905C7.79347 7.68629 8.06176 7.77416 8.29832 7.67574C8.61009 7.54595 9.10757 7.52195 9.64742 7.78609C9.602 8.1985 9.62777 8.69015 9.83209 9.19181C9.3842 9.50057 9.0759 10.0213 8.94116 10.6973C8.27276 10.1323 7.67471 10.0411 7.63831 10.036C7.54115 10.0226 7.44197 10.0367 7.35245 10.0767C7.30786 10.0966 6.24983 10.5732 5.22937 11.3184C4.99761 11.4877 4.94788 11.8114 5.11832 12.0415C5.28882 12.2717 5.61483 12.321 5.84652 12.1518C6.55333 11.6357 7.29883 11.252 7.61894 11.0962C7.87091 11.1833 8.43403 11.461 8.92665 12.2811C9.02214 12.8626 9.22119 13.3617 9.50713 13.7379C9.59846 14.099 9.66972 14.4891 9.71722 14.9023C9.80973 15.7036 9.95787 16.6361 10.1564 17.6738C9.66055 18.5984 8.80872 19.2886 7.79479 19.5788C7.09402 19.7797 6.329 19.7798 5.62768 19.5788C4.99851 19.3987 4.41942 19.0588 3.95298 18.5955C3.6508 18.2955 3.4032 17.9528 3.21499 17.5757ZM1.48445 26.1731C1.48445 24.6597 2.22654 23.3287 3.35458 22.7059V24.0071C3.35458 24.1388 3.40521 24.2656 3.49613 24.3616L5.50607 26.4828H1.48445V26.1731ZM7.91675 26.4828L9.92669 24.3615C10.0176 24.2655 10.0682 24.1388 10.0682 24.007V22.7086C10.4365 22.9144 10.7705 23.2006 11.052 23.5523C10.326 24.353 9.79014 25.3606 9.50775 26.4827H7.91675V26.4828ZM10.3229 28.3172C10.3229 25.9383 11.5861 23.905 13.3976 23.0862V25.2646C13.3976 25.4303 13.4776 25.586 13.6127 25.6832L14.4136 26.26V27.3222C14.4136 27.4877 14.4934 27.6433 14.6282 27.7406L16.3253 28.9655H10.3229V28.3172ZM25.5329 28.9655H19.5305L21.2276 27.7406C21.3624 27.6433 21.4422 27.4877 21.4422 27.3222V26.26L22.2431 25.6832C22.3782 25.5859 22.4582 25.4303 22.4582 25.2646V23.0862C24.2705 23.9054 25.5329 25.9394 25.5329 28.3172V28.9655V28.9655ZM24.8039 23.5524C25.0854 23.2007 25.4193 22.9144 25.7876 22.7087V24.0071C25.7876 24.1388 25.8383 24.2656 25.9292 24.3616L27.9391 26.4828H26.3482C26.0657 25.3607 25.5298 24.3531 24.8039 23.5524ZM34.3714 26.4828H30.3497L32.3597 24.3615C32.4506 24.2655 32.5012 24.1388 32.5012 24.007V22.7059C33.6293 23.3286 34.3714 24.6597 34.3714 26.173V26.4828V26.4828Z" fill="black"/>
</svg>
