<svg width="22" height="22" viewBox="0 0 22 22" xmlns="http://www.w3.org/2000/svg">
<path d="M20.4111 2.43396H15.2778V1.21109C15.2778 1.04892 15.2134 0.893402 15.0988 0.778735C14.9842 0.664068 14.8287 0.599649 14.6667 0.599649H12.2222C12.0601 0.599649 11.9047 0.664068 11.7901 0.778735C11.6755 0.893402 11.6111 1.04892 11.6111 1.21109V2.43396H9.56389C9.30942 1.72158 8.84106 1.10532 8.22295 0.669599C7.60485 0.233877 6.86722 0 6.11111 0C5.355 0 4.61738 0.233877 3.99927 0.669599C3.38116 1.10532 2.9128 1.72158 2.65833 2.43396H1.58889C1.16798 2.43558 0.764779 2.60358 0.467153 2.90137C0.169527 3.19915 0.00160959 3.60258 0 4.02371V15.5188C0.00160959 15.9399 0.169527 16.3433 0.467153 16.6411C0.764779 16.9389 1.16798 17.1069 1.58889 17.1085H8.42111L8.05444 18.9428H7.63889C7.2337 18.9428 6.8451 19.1039 6.55859 19.3905C6.27207 19.6772 6.11111 20.066 6.11111 20.4714C6.11111 20.8768 6.27207 21.2656 6.55859 21.5523C6.8451 21.839 7.2337 22 7.63889 22H14.3611C14.7663 22 15.1549 21.839 15.4414 21.5523C15.7279 21.2656 15.8889 20.8768 15.8889 20.4714C15.8889 20.066 15.7279 19.6772 15.4414 19.3905C15.1549 19.1039 14.7663 18.9428 14.3611 18.9428H13.9456L13.5789 17.1085H20.4111C20.832 17.1069 21.2352 16.9389 21.5328 16.6411C21.8305 16.3433 21.9984 15.9399 22 15.5188V4.02371C21.9984 3.60258 21.8305 3.19915 21.5328 2.90137C21.2352 2.60358 20.832 2.43558 20.4111 2.43396ZM12.8333 1.82253H14.0556V10.9941H12.8333V1.82253ZM8.47 3.0454H6.72222V1.29669C7.14258 1.40648 7.5261 1.62637 7.8333 1.93373C8.14049 2.2411 8.36027 2.62482 8.47 3.0454V3.0454ZM5.5 1.29669V3.65684C5.5 3.81901 5.56438 3.97453 5.67899 4.08919C5.7936 4.20386 5.94903 4.26828 6.11111 4.26828H8.47C8.36391 4.68718 8.14877 5.07048 7.8465 5.37916C7.54423 5.68784 7.16561 5.91087 6.74918 6.02556C6.33276 6.14025 5.8934 6.14249 5.47582 6.03207C5.05825 5.92164 4.67737 5.70249 4.37197 5.39692C4.06656 5.09135 3.84752 4.71027 3.73716 4.29247C3.62679 3.87467 3.62904 3.43507 3.74366 3.01843C3.85829 2.60178 4.0812 2.22296 4.38971 1.92052C4.69823 1.61809 5.08132 1.40284 5.5 1.29669V1.29669ZM1.58889 3.65684H2.44444C2.44444 4.62982 2.83075 5.56295 3.51839 6.25096C4.20602 6.93896 5.13865 7.32547 6.11111 7.32547C7.08357 7.32547 8.0162 6.93896 8.70384 6.25096C9.39147 5.56295 9.77778 4.62982 9.77778 3.65684H11.6111V10.9941H11V8.54835C11 8.38619 10.9356 8.23067 10.821 8.116C10.7064 8.00133 10.551 7.93691 10.3889 7.93691H7.94444C7.78237 7.93691 7.62693 8.00133 7.51232 8.116C7.39772 8.23067 7.33333 8.38619 7.33333 8.54835V10.9941C7.17126 10.9982 7.01743 11.0665 6.90569 11.184C6.79395 11.3015 6.73345 11.4587 6.7375 11.6208C6.74155 11.783 6.80982 11.9369 6.92729 12.0487C7.04476 12.1605 7.20181 12.221 7.36389 12.217H19.6717C19.8337 12.217 19.9892 12.1526 20.1038 12.0379C20.2184 11.9232 20.2828 11.7677 20.2828 11.6055C20.2828 11.4434 20.2184 11.2879 20.1038 11.1732C19.9892 11.0585 19.8337 10.9941 19.6717 10.9941H19.5556V5.49116C19.5556 5.32899 19.4912 5.17347 19.3766 5.05881C19.262 4.94414 19.1065 4.87972 18.9444 4.87972H16.5C16.3379 4.87972 16.1825 4.94414 16.0679 5.05881C15.9533 5.17347 15.8889 5.32899 15.8889 5.49116V10.9941H15.2778V3.65684H20.4111C20.5084 3.65684 20.6016 3.69549 20.6704 3.76429C20.7391 3.83309 20.7778 3.92641 20.7778 4.02371V13.4399H1.22222V4.02371C1.22222 3.92641 1.26085 3.83309 1.32962 3.76429C1.39838 3.69549 1.49164 3.65684 1.58889 3.65684V3.65684ZM9.77778 10.9941H8.55556V9.15979H9.77778V10.9941ZM18.3333 10.9941H17.1111V6.1026H18.3333V10.9941ZM14.6667 20.4714C14.6667 20.5525 14.6345 20.6302 14.5772 20.6876C14.5199 20.7449 14.4421 20.7771 14.3611 20.7771H7.63889C7.55785 20.7771 7.48013 20.7449 7.42283 20.6876C7.36553 20.6302 7.33333 20.5525 7.33333 20.4714C7.33333 20.3903 7.36553 20.3126 7.42283 20.2552C7.48013 20.1979 7.55785 20.1657 7.63889 20.1657H14.3611C14.4421 20.1657 14.5199 20.1979 14.5772 20.2552C14.6345 20.3126 14.6667 20.3903 14.6667 20.4714ZM12.6989 18.9428H9.30111L9.66778 17.1085H12.3322L12.6989 18.9428ZM20.4111 15.8856H1.58889C1.49164 15.8856 1.39838 15.847 1.32962 15.7782C1.26085 15.7094 1.22222 15.616 1.22222 15.5188V14.6627H20.7778V15.5188C20.7778 15.616 20.7391 15.7094 20.6704 15.7782C20.6016 15.847 20.5084 15.8856 20.4111 15.8856V15.8856Z" fill="currentColor"/>
</svg>
