<svg width="22" height="22" viewBox="0 0 22 22" fill="currentColor" xmlns="http://www.w3.org/2000/svg">
<path d="M9.53562 10.2644H3.66437C2.69252 10.2644 1.76047 9.8783 1.07327 9.1911C0.386067 8.5039 0 7.57185 0 6.6V3.66437C0 2.69252 0.386067 1.76047 1.07327 1.07327C1.76047 0.386067 2.69252 0 3.66437 0H6.6C7.57185 0 8.5039 0.386067 9.1911 1.07327C9.8783 1.76047 10.2644 2.69252 10.2644 3.66437V9.52875C10.2644 9.72266 10.1878 9.90874 10.0513 10.0465C9.91488 10.1843 9.72953 10.2626 9.53562 10.2644ZM3.66437 1.46437C3.0809 1.46437 2.52132 1.69616 2.10874 2.10874C1.69616 2.52132 1.46437 3.0809 1.46437 3.66437V6.6C1.46437 7.18347 1.69616 7.74305 2.10874 8.15563C2.52132 8.56821 3.0809 8.8 3.66437 8.8H8.8V3.66437C8.8 3.0809 8.56821 2.52132 8.15563 2.10874C7.74305 1.69616 7.18347 1.46437 6.6 1.46437H3.66437Z" fill="currentColor"/>
<path d="M18.3356 10.2644H12.4644C12.2693 10.2644 12.0822 10.1869 11.9442 10.0489C11.8063 9.91096 11.7288 9.72385 11.7288 9.52875V3.66438C11.7288 3.18259 11.8238 2.70553 12.0084 2.26049C12.1929 1.81546 12.4635 1.4112 12.8045 1.07084C13.1455 0.730484 13.5502 0.460712 13.9956 0.276965C14.441 0.0932172 14.9182 -0.000897474 15.4 6.44993e-06H18.3356C19.3075 6.44993e-06 20.2395 0.386073 20.9267 1.07328C21.6139 1.76048 22 2.69253 22 3.66438V6.6C22 7.57186 21.6139 8.5039 20.9267 9.19111C20.2395 9.87831 19.3075 10.2644 18.3356 10.2644ZM13.2 8.8H18.3356C18.9191 8.8 19.4787 8.56822 19.8913 8.15564C20.3038 7.74306 20.5356 7.18348 20.5356 6.6V3.66438C20.5356 3.0809 20.3038 2.52133 19.8913 2.10875C19.4787 1.69617 18.9191 1.46438 18.3356 1.46438H15.4C14.8165 1.46438 14.257 1.69617 13.8444 2.10875C13.4318 2.52133 13.2 3.0809 13.2 3.66438V8.8Z" fill="currentColor"/>
<path d="M6.6 21.9997H3.66437C2.69252 21.9997 1.76047 21.6137 1.07327 20.9265C0.386067 20.2393 0 19.3072 0 18.3353V15.3997C0 14.4279 0.386067 13.4958 1.07327 12.8086C1.76047 12.1214 2.69252 11.7354 3.66437 11.7354H9.52875C9.72385 11.7354 9.91096 11.8129 10.0489 11.9508C10.1869 12.0888 10.2644 12.2759 10.2644 12.471V18.3353C10.2644 19.3072 9.8783 20.2393 9.1911 20.9265C8.5039 21.6137 7.57185 21.9997 6.6 21.9997ZM3.66437 13.1997C3.0809 13.1997 2.52132 13.4315 2.10874 13.8441C1.69616 14.2567 1.46437 14.8162 1.46437 15.3997V18.3353C1.46437 18.9188 1.69616 19.4784 2.10874 19.891C2.52132 20.3036 3.0809 20.5353 3.66437 20.5353H6.6C7.18347 20.5353 7.74305 20.3036 8.15563 19.891C8.56821 19.4784 8.8 18.9188 8.8 18.3353V13.1997H3.66437Z" fill="currentColor"/>
<path d="M18.3356 21.9998H15.4C14.4281 21.9998 13.4961 21.6137 12.8089 20.9265C12.1217 20.2393 11.7356 19.3072 11.7356 18.3354V12.4641C11.7356 12.269 11.8131 12.0819 11.9511 11.944C12.089 11.806 12.2761 11.7285 12.4712 11.7285H18.3356C18.8174 11.7285 19.2944 11.8235 19.7395 12.0081C20.1845 12.1927 20.5888 12.4632 20.9291 12.8042C21.2695 13.1452 21.5393 13.55 21.723 13.9954C21.9068 14.4407 22.0009 14.918 22 15.3998V18.3354C22 19.3072 21.6139 20.2393 20.9267 20.9265C20.2395 21.6137 19.3074 21.9998 18.3356 21.9998ZM13.2 13.1998V18.3354C13.2 18.9189 13.4318 19.4784 13.8443 19.891C14.2569 20.3036 14.8165 20.5354 15.4 20.5354H18.3356C18.9191 20.5354 19.4786 20.3036 19.8912 19.891C20.3038 19.4784 20.5356 18.9189 20.5356 18.3354V15.3998C20.5356 14.8163 20.3038 14.2567 19.8912 13.8441C19.4786 13.4316 18.9191 13.1998 18.3356 13.1998H13.2Z" fill="currentColor"/>
</svg>
