<svg width="27" height="17" viewBox="0 0 27 17" xmlns="http://www.w3.org/2000/svg">
<path d="M8.52346 13.394H1.367C1.26966 13.394 1.17632 13.3553 1.10749 13.2865C1.03867 13.2177 1 13.1243 1 13.027V11.3755C1.00107 10.4122 1.3842 9.4887 2.06534 8.80756C2.74649 8.12642 3.67 7.74328 4.63328 7.74221H8.07573C8.9396 7.73889 9.7761 8.0451 10.4337 8.60538C11.0912 9.16565 11.5263 9.94293 11.6602 10.7964C11.6756 10.8925 11.6521 10.9908 11.5951 11.0696C11.538 11.1485 11.4519 11.2014 11.3558 11.2168C11.2597 11.2322 11.1614 11.2087 11.0825 11.1516C11.0037 11.0945 10.9508 11.0085 10.9354 10.9123C10.8285 10.2315 10.4814 9.61151 9.95678 9.16461C9.43218 8.71771 8.76487 8.47349 8.07573 8.47621H4.63328C3.86461 8.47709 3.12768 8.78283 2.58414 9.32636C2.04061 9.86989 1.73487 10.6068 1.734 11.3755V12.66H8.52346C8.6208 12.66 8.71415 12.6987 8.78297 12.7675C8.8518 12.8363 8.89046 12.9297 8.89046 13.027C8.89046 13.1243 8.8518 13.2177 8.78297 13.2865C8.71415 13.3553 8.6208 13.394 8.52346 13.394Z" fill="currentColor" stroke="currentColor" stroke-width="0.5"/>
<path d="M6.35339 6.68554C5.79113 6.68561 5.24147 6.51895 4.77393 6.20663C4.30639 5.8943 3.94197 5.45035 3.72675 4.93091C3.51153 4.41146 3.45519 3.83987 3.56483 3.2884C3.67448 2.73693 3.9452 2.23036 4.34275 1.83276C4.74031 1.43515 5.24684 1.16437 5.79829 1.05465C6.34975 0.944932 6.92135 1.00121 7.44082 1.21636C7.96029 1.43151 8.40429 1.79588 8.71668 2.26337C9.02906 2.73087 9.1958 3.28051 9.1958 3.84277C9.19502 4.59642 8.89531 5.31898 8.36244 5.85192C7.82956 6.38487 7.10704 6.68467 6.35339 6.68554ZM6.35339 1.73437C5.93629 1.73429 5.52852 1.85792 5.18168 2.0896C4.83484 2.32129 4.5645 2.65063 4.40484 3.03598C4.24519 3.42132 4.2034 3.84535 4.28475 4.25445C4.36611 4.66354 4.56696 5.03933 4.8619 5.33427C5.15684 5.6292 5.53262 5.83005 5.94171 5.91141C6.35081 5.99276 6.77484 5.95097 7.16019 5.79132C7.54553 5.63167 7.87487 5.36132 8.10656 5.01448C8.33825 4.66764 8.46187 4.25988 8.4618 3.84277C8.46112 3.2838 8.23876 2.74791 7.84351 2.35265C7.44825 1.9574 6.91237 1.73505 6.35339 1.73437Z" fill="currentColor" stroke="currentColor" stroke-width="0.5"/>
<path d="M26.323 13.394H19.1665C19.0692 13.394 18.9758 13.3553 18.907 13.2865C18.8382 13.2177 18.7995 13.1243 18.7995 13.027C18.7995 12.9297 18.8382 12.8363 18.907 12.7675C18.9758 12.6987 19.0692 12.66 19.1665 12.66H25.956V11.3755C25.9551 10.6068 25.6493 9.86989 25.1058 9.32636C24.5623 8.78283 23.8253 8.47708 23.0567 8.47621H19.6142C18.925 8.47352 18.2576 8.71784 17.733 9.16489C17.2084 9.61194 16.8613 10.2321 16.7546 10.9131C16.7392 11.0092 16.6863 11.0953 16.6074 11.1524C16.5286 11.2095 16.4303 11.2329 16.3342 11.2175C16.2381 11.2021 16.152 11.1492 16.0949 11.0704C16.0378 10.9915 16.0144 10.8932 16.0298 10.7971C16.1635 9.94353 16.5985 9.16608 17.2561 8.60565C17.9137 8.04523 18.7502 7.73891 19.6142 7.74221H23.0567C24.02 7.74328 24.9435 8.12642 25.6246 8.80756C26.3058 9.4887 26.6889 10.4122 26.69 11.3755V13.027C26.69 13.1243 26.6513 13.2177 26.5825 13.2865C26.5136 13.3553 26.4203 13.394 26.323 13.394Z" fill="currentColor" stroke="currentColor" stroke-width="0.5"/>
<path d="M21.3364 6.68554C20.7742 6.68554 20.2246 6.51882 19.7571 6.20645C19.2896 5.89408 18.9252 5.4501 18.71 4.93065C18.4949 4.4112 18.4386 3.83962 18.5483 3.28817C18.658 2.73673 18.9287 2.2302 19.3263 1.83263C19.7238 1.43506 20.2304 1.16431 20.7818 1.05462C21.3333 0.944935 21.9049 1.00123 22.4243 1.21639C22.9438 1.43156 23.3877 1.79592 23.7001 2.26341C24.0125 2.7309 24.1792 3.28052 24.1792 3.84277C24.1783 4.59645 23.8785 5.31901 23.3456 5.85195C22.8127 6.38488 22.0901 6.68467 21.3364 6.68554ZM21.3364 1.73437C20.9193 1.73437 20.5116 1.85805 20.1648 2.08978C19.818 2.32151 19.5477 2.65088 19.3881 3.03623C19.2285 3.42158 19.1868 3.8456 19.2682 4.25467C19.3496 4.66375 19.5505 5.03949 19.8454 5.3344C20.1404 5.6293 20.5162 5.83011 20.9252 5.91144C21.3343 5.99276 21.7583 5.95095 22.1437 5.79129C22.529 5.63162 22.8583 5.36128 23.09 5.01444C23.3217 4.66761 23.4453 4.25986 23.4452 3.84277C23.4446 3.2837 23.2222 2.7477 22.8269 2.35242C22.4315 1.95713 21.8955 1.73485 21.3364 1.73437Z" fill="currentColor" stroke="currentColor" stroke-width="0.5"/>
<path d="M19.469 16.3479H8.22051C8.12318 16.3479 8.02983 16.3092 7.96101 16.2404C7.89218 16.1716 7.85352 16.0782 7.85352 15.9809V14.4865C7.85458 13.4125 8.28167 12.3828 9.04106 11.6233C9.80044 10.8639 10.8301 10.4367 11.9041 10.4355H15.7855C16.8594 10.4367 17.8891 10.8639 18.6485 11.6233C19.4079 12.3828 19.8349 13.4125 19.836 14.4865V15.9809C19.836 16.0782 19.7973 16.1716 19.7285 16.2404C19.6597 16.3092 19.5663 16.3479 19.469 16.3479ZM8.58751 15.6139H19.102V14.4865C19.1011 13.6071 18.7514 12.764 18.1297 12.1421C17.5079 11.5203 16.6648 11.1705 15.7855 11.1695H11.9041C11.0248 11.1705 10.1818 11.5202 9.55998 12.142C8.93822 12.7638 8.58848 13.6068 8.58751 14.4861V15.6139Z" fill="currentColor" stroke="currentColor" stroke-width="0.5"/>
<path d="M13.8449 9.15101C13.22 9.15108 12.6091 8.96584 12.0895 8.61872C11.5699 8.27159 11.1649 7.77817 10.9257 7.20086C10.6865 6.62355 10.6239 5.98827 10.7457 5.37536C10.8676 4.76246 11.1685 4.19946 11.6103 3.75756C12.0522 3.31566 12.6151 3.01471 13.228 2.89277C13.8409 2.77083 14.4762 2.83338 15.0535 3.0725C15.6309 3.31162 16.1244 3.71658 16.4715 4.23617C16.8187 4.75575 17.004 5.36662 17.004 5.99152C17.0033 6.82917 16.6702 7.63229 16.0779 8.22463C15.4856 8.81697 14.6826 9.15014 13.8449 9.15101ZM13.8449 3.5653C13.3652 3.56522 12.8962 3.70742 12.4972 3.97391C12.0983 4.2404 11.7874 4.61921 11.6038 5.06242C11.4201 5.50564 11.3721 5.99335 11.4656 6.46389C11.5592 6.93442 11.7902 7.36664 12.1295 7.70587C12.4687 8.0451 12.9009 8.27612 13.3714 8.36969C13.842 8.46327 14.3297 8.41521 14.7729 8.23158C15.2161 8.04795 15.5949 7.73702 15.8614 7.33809C16.1279 6.93916 16.2701 6.47017 16.27 5.99042C16.2694 5.34745 16.0136 4.731 15.559 4.27635C15.1043 3.8217 14.4879 3.56598 13.8449 3.5653Z" fill="currentColor" stroke="currentColor" stroke-width="0.5"/>
</svg>
