<svg width="21" height="21" viewBox="0 0 21 21" fill="currentColor" xmlns="http://www.w3.org/2000/svg">
<path d="M20.5436 5.45399H14.1176C14.6873 5.16454 15.2379 4.80849 15.6816 4.36473C16.6841 3.36222 16.6841 1.73152 15.6816 0.728965C14.7101 -0.242537 13.0174 -0.243439 12.0459 0.728965C11.33 1.44477 10.8251 2.42907 10.5001 3.34393C10.175 2.42907 9.6701 1.44477 8.95426 0.728965C7.98185 -0.243439 6.28814 -0.242537 5.31849 0.728965C4.31598 1.73147 4.31598 3.36218 5.31849 4.36473C5.76224 4.80849 6.31279 5.16454 6.88254 5.45399H0.456507C0.204505 5.45399 0 5.6585 0 5.9105V9.56268C0 9.81468 0.204505 10.0192 0.456507 10.0192H0.913013V20.5192C0.913013 20.7712 1.11752 20.9757 1.36952 20.9757H8.67391H12.3261H19.6305C19.8825 20.9757 20.087 20.7712 20.087 20.5192V10.0192H20.5435C20.7955 10.0192 21 9.81468 21 9.56268V5.9105C21.0001 5.6585 20.7956 5.45399 20.5436 5.45399ZM8.21745 20.0628H1.82611V10.0192H8.21745V20.0628ZM8.21745 9.10617H1.36956H0.913054V6.36705H8.21745V9.10617ZM5.96404 3.71919C5.31758 3.07273 5.31758 2.02092 5.96404 1.37447C6.27719 1.06037 6.69354 0.888722 7.13639 0.888722C7.57924 0.888722 7.99465 1.06037 8.30875 1.37447C9.48201 2.54773 10.0335 4.72535 10.0463 5.43935C10.0463 5.4439 10.0454 5.4503 10.0454 5.45395H9.99516C9.25285 5.42844 7.12269 4.87694 5.96404 3.71919ZM11.8696 20.0628H9.13046V10.0192H11.8696V20.0628ZM11.8696 9.10617H9.13046V6.36705H10.0709H10.0718H10.9283H10.9292H11.8696V9.10617ZM11.005 5.45399H10.9548C10.9548 5.45034 10.9539 5.44394 10.9539 5.43939C10.9667 4.72539 11.5181 2.54777 12.6914 1.37451C13.0055 1.06041 13.4209 0.888763 13.8637 0.888763C14.3066 0.888763 14.7229 1.06041 15.0361 1.37451C15.6825 2.02096 15.6825 3.07278 15.0361 3.71923C13.8774 4.87694 11.7473 5.42844 11.005 5.45399ZM19.174 20.0628H12.7827V10.0192H19.174V20.0628ZM20.0871 9.10617H19.6306H12.7827V6.36705H20.0871V9.10617Z" fill="currentColor"/>
</svg>
