<svg width="31" height="30" viewBox="0 0 31 30" fill="none" xmlns="http://www.w3.org/2000/svg">
<path d="M22.1163 23.8976L24.8389 21.2109L22.6655 19.0393L19.9429 21.726L22.1163 23.8976Z" fill="#334A5E"/>
<path d="M22.0203 3.61627C17.1751 -1.19496 9.37245 -1.19496 4.52728 3.55377C-0.317888 8.30249 -0.317887 16.113 4.46434 20.9242C9.24656 25.7354 17.1122 25.7354 21.9573 20.9867C26.8025 16.238 26.8026 8.4275 22.0203 3.61627Z" fill="#40596B"/>
<path d="M6.3521 19.0495C2.57663 15.3004 2.57663 9.17705 6.41505 5.42803C10.1905 1.679 16.3571 1.679 20.1326 5.49053C23.908 9.23955 23.908 15.3629 20.0696 19.112C16.2942 22.8609 10.1276 22.8609 6.3521 19.0495Z" fill="#F2F2F2"/>
<path d="M19.063 18.1126C15.8539 21.2367 10.5682 21.2367 7.422 18.0501C4.21285 14.8634 4.21285 9.67726 7.48495 6.49059C10.757 3.30392 15.8539 3.30392 19.0631 6.49059C22.2722 9.7397 22.2722 14.9259 19.063 18.1126Z" fill="#54C0EB"/>
<path d="M17.0492 16.1129C14.9727 18.1748 11.5748 18.1748 9.43531 16.1129C7.3588 14.0509 7.3588 10.6768 9.43531 8.55233C11.5118 6.49037 14.9097 6.49037 17.0492 8.55233C19.1887 10.6768 19.1887 14.0509 17.0492 16.1129Z" fill="#40596B"/>
<path d="M29.8858 23.7362L25.9845 19.8623C25.7328 19.6123 25.3552 19.6123 25.1036 19.8623L20.7618 24.1736C20.5101 24.4236 20.5101 24.7985 20.7618 25.0484L24.6631 28.9224C26.1103 30.3595 28.4386 30.3595 29.8858 28.9224C31.3331 27.4853 31.3331 25.1733 29.8858 23.7362Z" fill="#FF7058"/>
<path d="M10.7568 10.4269C11.6951 10.4269 12.4558 9.67153 12.4558 8.73979C12.4558 7.80806 11.6951 7.05273 10.7568 7.05273C9.81851 7.05273 9.05786 7.80806 9.05786 8.73979C9.05786 9.67153 9.81851 10.4269 10.7568 10.4269Z" fill="white"/>
<path d="M13.0222 11.9263C13.5782 11.9263 14.029 11.4787 14.029 10.9265C14.029 10.3744 13.5782 9.92676 13.0222 9.92676C12.4661 9.92676 12.0154 10.3744 12.0154 10.9265C12.0154 11.4787 12.4661 11.9263 13.0222 11.9263Z" fill="white"/>
</svg>
