<svg width="20" height="20" viewBox="0 0 20 20" xmlns="http://www.w3.org/2000/svg">
<path d="M18.8557 5.74941L9.66969 0.0477514C9.56738 -0.0159171 9.43814 -0.0159171 9.33551 0.0477514L0.14951 5.74941C0.0566998 5.80737 0 5.90905 0 6.01865V7.60245C0 7.71743 0.0624014 7.82323 0.162814 7.87929C0.26291 7.93473 0.385812 7.93251 0.484007 7.87169L1.26703 7.38547V18.689C1.26703 18.8642 1.40894 19.0058 1.58379 19.0058H3.16759H15.8379H17.4217C17.5966 19.0058 17.7385 18.8642 17.7385 18.689V7.38547L18.5218 7.87169C18.5728 7.90337 18.6308 7.91921 18.6888 7.91921C18.7417 7.91921 18.7949 7.9059 18.8427 7.87929C18.9431 7.82323 19.0055 7.71743 19.0055 7.60245V6.01865C19.0055 5.90905 18.9488 5.80737 18.8557 5.74941ZM15.5212 12.0371H3.48435V11.0868H15.5212V12.0371ZM3.48435 12.6706H15.5212V13.6209H3.48435V12.6706ZM3.48435 14.2544H15.5212V15.2047H3.48435V14.2544ZM3.48435 15.8382H15.5212V16.7885H3.48435V15.8382ZM3.48435 18.3722V17.422H15.5212V18.3722H3.48435ZM17.105 18.3722H16.1547V10.77C16.1547 10.5949 16.0128 10.4533 15.8379 10.4533H3.16759C2.99274 10.4533 2.85083 10.5949 2.85083 10.77V18.3722H1.90055V6.99205L9.50276 2.27361L17.105 6.99237V18.3722ZM18.372 7.03291L9.66969 1.63155C9.6187 1.59987 9.56073 1.58403 9.50276 1.58403C9.44479 1.58403 9.38683 1.59987 9.33583 1.63155L0.633517 7.03291V6.19477L9.50276 0.689505L18.372 6.19477V7.03291Z" fill="currentColor"/>
<path d="M6.65186 7.9193V9.18633C6.65186 9.3615 6.79376 9.50309 6.96861 9.50309H12.0368C12.2116 9.50309 12.3535 9.3615 12.3535 9.18633V7.9193C12.3535 7.74413 12.2116 7.60254 12.0368 7.60254H6.96861C6.79376 7.60254 6.65186 7.74413 6.65186 7.9193ZM7.28537 8.23606H11.72V8.86957H7.28537V8.23606Z" fill="currentColor"/>
<path d="M13.3036 9.50309H15.8376C16.0125 9.50309 16.1544 9.3615 16.1544 9.18633V7.9193C16.1544 7.74413 16.0125 7.60254 15.8376 7.60254H13.3036C13.1287 7.60254 12.9868 7.74413 12.9868 7.9193V9.18633C12.9868 9.3615 13.1287 9.50309 13.3036 9.50309ZM13.6203 8.23606H15.5209V8.86957H13.6203V8.23606Z" fill="currentColor"/>
<path d="M5.70141 7.60254H3.16734C2.99249 7.60254 2.85059 7.74413 2.85059 7.9193V9.18633C2.85059 9.3615 2.99249 9.50309 3.16734 9.50309H5.70141C5.87627 9.50309 6.01817 9.3615 6.01817 9.18633V7.9193C6.01817 7.74413 5.87627 7.60254 5.70141 7.60254ZM5.38466 8.86957H3.4841V8.23606H5.38466V8.86957Z" fill="currentColor"/>
</svg>
