<svg width="20" height="21" viewBox="0 0 20 21" xmlns="http://www.w3.org/2000/svg">
<path fill-rule="evenodd" clip-rule="evenodd" d="M19.9999 11.0011C19.9999 13.6699 18.9584 16.1844 17.0713 18.0715C15.1842 19.9586 12.6696 21.0001 10.0009 21.0001C7.33228 21.0001 4.81773 19.9586 2.93069 18.0716C1.04361 16.1844 0.00195312 13.6699 0.00195312 11.0011C0.00195312 7.45707 1.88794 4.16931 4.94111 2.37593C5.31139 2.15845 5.7399 2.15603 6.11256 2.36933C6.48526 2.58263 6.70024 2.95337 6.70024 3.38278C6.70024 3.83617 6.52299 4.20192 6.1267 4.43615C3.80958 5.80582 2.37887 8.30694 2.37887 11.0011C2.37887 15.2036 5.79837 18.6232 10.0009 18.6232C14.2034 18.6232 17.623 15.2036 17.623 11.0011C17.623 8.30702 16.1925 5.80578 13.8754 4.43623C13.5107 4.22067 13.3018 3.85469 13.3018 3.43102C13.3018 2.97188 13.4848 2.60091 13.8895 2.36929C14.2621 2.15599 14.6907 2.15837 15.0609 2.37581C18.1141 4.16907 19.9999 7.45722 19.9999 11.0011ZM11.1554 9.43359V1.1543C11.1554 0.516902 10.6383 0 10.0009 0C9.36357 0 8.84663 0.516941 8.84663 1.1543V9.43355C8.84663 10.0711 9.36333 10.5879 10.0009 10.5879C10.6385 10.5879 11.1554 10.0712 11.1554 9.43359Z" fill="currentColor"/>
</svg>
