<svg width="40" height="25" viewBox="0 0 40 25" fill="none" xmlns="http://www.w3.org/2000/svg">
<path d="M33.8661 24.4366H2.01587C1.70484 24.4366 1.45264 24.1862 1.45264 23.8774V5.24191C1.45264 4.93305 1.70484 4.68262 2.01587 4.68262H33.8661C34.1771 4.68262 34.4293 4.93305 34.4293 5.24191V23.8774C34.4292 24.1862 34.1771 24.4366 33.8661 24.4366Z" fill="#5CC45C"/>
<path d="M33.8661 4.68262H2.01587C1.70484 4.68262 1.45264 4.93305 1.45264 5.24191V23.3946H34.4292V5.24191C34.4292 4.93305 34.1771 4.68262 33.8661 4.68262Z" fill="#4EAD4E"/>
<path d="M36.0943 22.4522H4.24414C3.93311 22.4522 3.68091 22.2018 3.68091 21.8929V3.25753C3.68091 2.94868 3.93311 2.69824 4.24414 2.69824H36.0943C36.4054 2.69824 36.6576 2.94868 36.6576 3.25753V21.893C36.6575 22.2018 36.4054 22.4522 36.0943 22.4522Z" fill="#5CC45C"/>
<path d="M36.0943 2.69824H4.24414C3.93311 2.69824 3.68091 2.9486 3.68091 3.25753V21.3259H36.6575V3.25753C36.6575 2.9486 36.4054 2.69824 36.0943 2.69824Z" fill="#4EAD4E"/>
<path d="M38.4735 20.3175H6.62329C6.31226 20.3175 6.06006 20.0671 6.06006 19.7582V1.12277C6.06006 0.81391 6.31226 0.563477 6.62329 0.563477H38.4735C38.7845 0.563477 39.0367 0.81391 39.0367 1.12277V19.7582C39.0367 20.0671 38.7845 20.3175 38.4735 20.3175Z" fill="#5CC45C"/>
<path d="M38.474 0.563477H34.9639V20.3175H38.474C38.785 20.3175 39.0372 20.0671 39.0372 19.7582V1.12277C39.0372 0.81391 38.785 0.563477 38.474 0.563477Z" fill="#4EAD4E"/>
<path d="M10.3941 18.2884C10.2751 17.0894 9.31179 16.1328 8.10425 16.0146C8.03597 16.0079 7.98462 15.9497 7.98462 15.8816V5.0002C7.98462 4.93209 8.03597 4.87389 8.10425 4.86721C9.31172 4.74902 10.2751 3.79249 10.3941 2.59341C10.4008 2.5256 10.4594 2.47461 10.528 2.47461H34.5695C34.6381 2.47461 34.6967 2.5256 34.7035 2.59341C34.8225 3.79241 35.7858 4.74902 36.9933 4.86721C37.0616 4.87389 37.1129 4.93209 37.1129 5.0002V15.8817C37.1129 15.9498 37.0616 16.008 36.9933 16.0146C35.7858 16.1328 34.8225 17.0894 34.7035 18.2885C34.6967 18.3563 34.6381 18.4072 34.5695 18.4072H24.1395H23.0934H21.5053H10.528C10.4594 18.4072 10.4008 18.3562 10.3941 18.2884Z" fill="#A0E557"/>
<path d="M36.993 4.86624C35.7855 4.74811 34.8222 3.79151 34.7031 2.59243C34.6964 2.52462 34.6378 2.47363 34.5692 2.47363H32.9534V18.4062H34.5692C34.6378 18.4062 34.6964 18.3552 34.7031 18.2874C34.8222 17.0884 35.7854 16.1318 36.993 16.0136C37.0613 16.0069 37.1126 15.9487 37.1126 15.8806V4.99922C37.1126 4.93112 37.0613 4.87292 36.993 4.86624Z" fill="#93CC4A"/>
<path d="M22.5484 15.8442C25.554 15.8442 27.9905 13.4247 27.9905 10.4402C27.9905 7.45561 25.554 5.03613 22.5484 5.03613C19.5427 5.03613 17.1062 7.45561 17.1062 10.4402C17.1062 13.4247 19.5427 15.8442 22.5484 15.8442Z" fill="#F3E8D7"/>
<path d="M22.5489 5.03613C21.8121 5.03613 21.1101 5.18226 20.4692 5.44561C22.4429 6.25684 23.8318 8.1871 23.8318 10.4401C23.8318 12.6931 22.4429 14.6234 20.4692 15.4346C21.1101 15.698 21.8121 15.8441 22.5489 15.8441C25.5545 15.8441 27.991 13.4246 27.991 10.44C27.991 7.45562 25.5545 5.03613 22.5489 5.03613Z" fill="#DDD1C3"/>
<path d="M22.4056 13.1662C21.3298 13.149 20.6011 12.5718 20.6011 12.1497C20.6011 11.9429 20.7832 11.6587 21.0001 11.6587C21.2864 11.6587 21.5206 12.2617 22.4056 12.3306V10.3062C21.6248 10.0305 20.7572 9.72037 20.7572 8.61771C20.7572 7.53225 21.5814 7.10152 22.4056 7.01538V6.76555C22.4056 6.66215 22.5097 6.56738 22.6572 6.56738C22.7873 6.56738 22.9174 6.66215 22.9174 6.76555V6.99819C23.5073 7.01539 24.3401 7.19636 24.3401 7.61845C24.3401 7.78216 24.2187 8.10949 23.9584 8.10949C23.7502 8.10949 23.5246 7.83382 22.9174 7.79072V9.53947C23.6722 9.81514 24.4963 10.1942 24.4963 11.3658C24.4963 12.4254 23.8544 13.0112 22.9174 13.1405V13.4333C22.9174 13.5367 22.7872 13.6315 22.6572 13.6315C22.5097 13.6315 22.4056 13.5367 22.4056 13.4333V13.1662ZM22.4577 9.3757V7.80784C21.9718 7.86814 21.6249 8.0835 21.6249 8.53143C21.6249 9.02246 21.9978 9.20344 22.4577 9.3757ZM22.8654 10.4956V12.3133C23.3339 12.2272 23.6288 11.9515 23.6288 11.4604C23.6288 10.9177 23.2905 10.6765 22.8654 10.4956Z" fill="black"/>
<path d="M38.4738 0H6.62365C6.00037 0 5.49325 0.503571 5.49325 1.12249V2.13473H4.24427C3.62099 2.13473 3.11386 2.63831 3.11386 3.25722V4.11951H2.0159C1.39262 4.11958 0.885498 4.62316 0.885498 5.24214V23.8775C0.885498 24.4964 1.39262 25 2.0159 25H33.866C34.4893 25 34.9964 24.4964 34.9964 23.8775V23.0152H36.0944C36.7177 23.0152 37.2248 22.5117 37.2248 21.8928V20.8805H38.4738C39.0971 20.8805 39.6042 20.377 39.6042 19.7581V1.12249C39.6042 0.503571 39.0971 0 38.4738 0ZM2.01983 23.8775L2.0159 5.24605H3.11386V21.8928C3.11386 22.5117 3.62099 23.0152 4.24427 23.0152H33.8637L33.866 23.8737L2.01983 23.8775ZM4.2482 21.8927L4.24427 3.2612H5.49325V19.758C5.49325 20.3769 6.00037 20.8804 6.62365 20.8804H36.0919L36.0944 21.8888L34.4334 21.8891C34.4321 21.8891 34.4307 21.8888 34.4293 21.8888C34.428 21.8888 34.4266 21.8891 34.4252 21.8891L4.2482 21.8927ZM6.62758 19.7579L6.62365 1.12639L38.4698 1.12249L38.4741 19.754C38.4726 19.754 38.4741 19.754 38.4726 19.754C38.4711 19.754 38.4756 19.754 38.4741 19.754L6.62758 19.7579Z" fill="black"/>
<path d="M37.0489 4.30554C36.1095 4.21355 35.3604 3.46976 35.2678 2.53695C35.2323 2.17966 34.9322 1.91016 34.5695 1.91016H24.1478C23.8345 1.91016 23.5807 2.16224 23.5807 2.47335C23.5807 2.78446 23.8345 3.03655 24.1478 3.03655H34.203C34.47 4.18892 35.3852 5.09769 36.5457 5.36284V15.5166C35.3852 15.7816 34.4701 16.6905 34.203 17.8429H24.1394C23.8261 17.8429 23.5723 18.095 23.5723 18.4061C23.5723 18.7172 23.8261 18.9693 24.1394 18.9693H34.5695C34.9322 18.9693 35.2324 18.6997 35.2678 18.3425C35.3604 17.4097 36.1095 16.6659 37.0489 16.5739C37.4087 16.5387 37.6801 16.2406 37.6801 15.8805V4.99894C37.6801 4.6388 37.4087 4.34076 37.0489 4.30554Z" fill="black"/>
<path d="M21.5051 17.8428H10.8943C10.6273 16.6904 9.71215 15.7817 8.55157 15.5165V5.36284C9.71207 5.09777 10.6273 4.18899 10.8943 3.03655H21.5086C21.8219 3.03655 22.0758 2.78446 22.0758 2.47335C22.0758 2.16224 21.8219 1.91016 21.5086 1.91016H10.5278C10.1651 1.91016 9.86491 2.17966 9.82952 2.53688C9.73688 3.46976 8.98784 4.21355 8.04846 4.30554C7.68865 4.34076 7.41724 4.6388 7.41724 4.99894V15.8804C7.41724 16.2405 7.68865 16.5387 8.04846 16.5738C8.98784 16.6658 9.73688 17.4096 9.82952 18.3424C9.86498 18.6997 10.1651 18.9692 10.5278 18.9692H21.5051C21.8184 18.9692 22.0723 18.7171 22.0723 18.406C22.0723 18.0949 21.8184 17.8428 21.5051 17.8428Z" fill="black"/>
<path d="M28.558 10.4399C28.558 7.14956 25.8623 4.47266 22.5486 4.47266C19.235 4.47266 16.5393 7.14956 16.5393 10.4399C16.5393 13.7302 19.235 16.4071 22.5486 16.4071C25.8623 16.4071 28.558 13.7303 28.558 10.4399ZM22.5486 15.2807C19.8606 15.2807 17.6736 13.1091 17.6736 10.4399C17.6736 7.77065 19.8606 5.59905 22.5486 5.59905C25.2367 5.59905 27.4236 7.77065 27.4236 10.4399C27.4236 13.1091 25.2367 15.2807 22.5486 15.2807Z" fill="black"/>
</svg>
