<svg width="28" height="28" viewBox="0 0 28 28" xmlns="http://www.w3.org/2000/svg">
<path d="M14 6.45312C9.83866 6.45312 6.45312 9.83866 6.45312 14C6.45312 18.1613 9.83866 21.5469 14 21.5469C18.1613 21.5469 21.5469 18.1613 21.5469 14C21.5469 9.83866 18.1613 6.45312 14 6.45312ZM14 20.4531C10.4418 20.4531 7.54688 17.5582 7.54688 14C7.54688 10.4418 10.4418 7.54688 14 7.54688C17.5582 7.54688 20.4531 10.4418 20.4531 14C20.4531 17.5582 17.5582 20.4531 14 20.4531Z" fill="currentColor"/>
<path d="M14.8924 13.4451C14.7787 13.4049 14.6629 13.3631 14.5469 13.3199V11.172C14.837 11.2681 15.028 11.4035 15.038 11.4107C15.2786 11.5907 15.6197 11.5429 15.8014 11.303C15.9838 11.0623 15.9365 10.7193 15.6958 10.5369C15.6667 10.5148 15.2144 10.1793 14.5469 10.0414V9.58789C14.5469 9.28585 14.3021 9.04102 14 9.04102C13.698 9.04102 13.4532 9.28585 13.4532 9.58789V10.0377C13.3806 10.0528 13.3073 10.0708 13.2331 10.0931C12.516 10.3085 11.9802 10.9212 11.8346 11.692C11.7014 12.3974 11.9285 13.0786 12.4273 13.4698C12.6873 13.6738 13.0104 13.8601 13.4532 14.0567V16.8505C13.084 16.8208 12.8452 16.7276 12.4418 16.4637C12.189 16.2983 11.8501 16.3692 11.6847 16.622C11.5194 16.8748 11.5902 17.2137 11.8431 17.3791C12.4715 17.7901 12.9014 17.9146 13.4532 17.9469V18.4125C13.4532 18.7145 13.698 18.9594 14 18.9594C14.3021 18.9594 14.5469 18.7145 14.5469 18.4125V17.8847C15.5707 17.6337 16.2271 16.7632 16.3715 15.9048C16.5582 14.7941 15.9777 13.8286 14.8924 13.4451ZM13.1023 12.6093C12.9288 12.4732 12.8531 12.1929 12.9094 11.895C12.9592 11.6313 13.1281 11.3169 13.4532 11.176V12.8378C13.3218 12.7643 13.2029 12.6882 13.1023 12.6093ZM15.2929 15.7234C15.2273 16.113 14.9744 16.525 14.5469 16.7303V14.4835C15.3802 14.7894 15.329 15.5088 15.2929 15.7234Z" fill="currentColor"/>
<path d="M3.5 14C3.5 8.21029 8.21029 3.5 14 3.5C16.5639 3.5 18.9972 4.41787 20.9118 6.09607L20.4914 6.51651C20.3486 6.6593 20.2961 6.86913 20.3548 7.06234C20.4135 7.25555 20.574 7.40064 20.7721 7.43974L24.9448 8.2635C25.1237 8.29888 25.3084 8.24266 25.4374 8.11366C25.5664 7.9847 25.6225 7.79997 25.5872 7.62103L24.7634 3.44832C24.7243 3.25019 24.5792 3.08979 24.386 3.03105C24.1928 2.97237 23.983 3.02482 23.8402 3.16755L23.3907 3.61709C20.8119 1.2804 17.4983 0 14 0C11.1407 0 8.39716 0.850883 6.06599 2.46066C5.81744 2.63227 5.75509 2.97287 5.92676 3.22142C6.09837 3.46998 6.43902 3.53227 6.68752 3.36066C8.83509 1.87764 11.3637 1.09375 14 1.09375C17.3916 1.09375 20.595 2.3993 23.02 4.76995C23.2343 4.97935 23.5771 4.97744 23.789 4.76558L23.8889 4.66566L24.3562 7.03243L21.9894 6.56518L22.0874 6.46723C22.1909 6.36371 22.2486 6.22311 22.2475 6.07677C22.2465 5.93042 22.1869 5.79059 22.082 5.68854C19.9062 3.57191 17.036 2.40625 14 2.40625C7.79056 2.40625 2.70561 7.3133 2.41899 13.4531H1.10507C1.20586 11.0148 1.98045 8.68623 3.36066 6.68762C3.53227 6.43913 3.46998 6.09853 3.22142 5.92687C2.97292 5.7552 2.63227 5.81755 2.46066 6.0661C0.850883 8.39721 0 11.1407 0 14C0 14.302 0.244836 14.5469 0.546875 14.5469H2.95312C3.25516 14.5469 3.5 14.302 3.5 14Z" fill="currentColor"/>
<path d="M27.453 13.4531H25.0468C24.7447 13.4531 24.4999 13.698 24.4999 14C24.4999 19.7897 19.7896 24.5 13.9999 24.5C11.436 24.5 9.00278 23.5821 7.08811 21.9039L7.50855 21.4835C7.65134 21.3407 7.70384 21.1309 7.6451 20.9377C7.58637 20.7444 7.42592 20.5994 7.22784 20.5603L3.05513 19.7365C2.8763 19.7012 2.69146 19.7573 2.5625 19.8863C2.43355 20.0153 2.37739 20.2 2.41271 20.379L3.23647 24.5517C3.27557 24.7498 3.42066 24.9102 3.61387 24.9689C3.80714 25.0276 4.01692 24.9752 4.15971 24.8324L4.60918 24.3829C7.18797 26.7196 10.5016 28 13.9999 28C17.7394 28 21.2551 26.5437 23.8994 23.8995C26.5437 21.2552 27.9999 17.7395 27.9999 14C27.9999 13.698 27.7551 13.4531 27.453 13.4531ZM23.126 23.1261C20.6883 25.5638 17.4473 26.9062 13.9999 26.9062C10.6083 26.9062 7.40492 25.6007 4.97985 23.23C4.87354 23.1261 4.73556 23.0742 4.59759 23.0742C4.45753 23.0742 4.31759 23.1277 4.21089 23.2344L4.11098 23.3343L3.64373 20.9676L6.01049 21.4348L5.91249 21.5328C5.80903 21.6363 5.75133 21.7769 5.75237 21.9232C5.75335 22.0696 5.81296 22.2094 5.91791 22.3115C8.09365 24.4281 10.9639 25.5938 13.9999 25.5938C20.2093 25.5938 25.2943 20.6867 25.5809 14.5469H26.8948C26.7606 17.7891 25.4343 20.8177 23.126 23.1261Z" fill="currentColor"/>
<path d="M4.48657 5.03418C4.6304 5.03418 4.77149 4.97566 4.87321 4.87395C4.97493 4.77223 5.03345 4.63113 5.03345 4.4873C5.03345 4.34348 4.97493 4.20238 4.87321 4.10066C4.77149 3.99895 4.6304 3.94043 4.48657 3.94043C4.34274 3.94043 4.20165 3.99895 4.09993 4.10066C3.99821 4.20238 3.9397 4.34348 3.9397 4.4873C3.9397 4.63113 3.99821 4.77223 4.09993 4.87395C4.20165 4.97566 4.34274 5.03418 4.48657 5.03418Z" fill="currentColor"/>
</svg>
