<svg width="24" height="24" viewBox="0 0 24 24" xmlns="http://www.w3.org/2000/svg">
<path d="M1.07091 9.68189C1.52225 9.6143 1.98559 9.54948 2.44799 9.4892C2.50401 9.48193 2.54947 9.44392 2.56363 9.39245C2.77704 8.61797 3.08673 7.87063 3.48403 7.17119C3.51074 7.12422 3.50573 7.06498 3.47123 7.02012C3.18685 6.65052 2.90496 6.2769 2.63333 5.9097C2.26659 5.41388 2.31984 4.71031 2.75707 4.27303L4.27416 2.75594C4.71144 2.31871 5.41496 2.26546 5.91088 2.63229C6.27728 2.90331 6.65086 3.18521 7.02125 3.47015C7.06597 3.50465 7.12535 3.50966 7.17232 3.48299C7.87171 3.08569 8.61905 2.776 9.39358 2.56255C9.4451 2.54844 9.48311 2.50297 9.49042 2.44682C9.55084 1.98371 9.61562 1.52042 9.68302 1.06988C9.77429 0.459918 10.3094 0 10.9278 0H13.0733C13.6917 0 14.2268 0.459918 14.318 1.06983C14.3854 1.52047 14.4502 1.98371 14.5106 2.44691C14.518 2.50302 14.5559 2.54839 14.6075 2.56255C15.382 2.7761 16.1294 3.08574 16.8287 3.48299C16.8757 3.50966 16.935 3.5045 16.9798 3.47015C17.3502 3.18521 17.7238 2.90331 18.0903 2.63225C18.5862 2.26546 19.2897 2.31881 19.7269 2.75599L21.244 4.27308C21.6813 4.71041 21.7345 5.41402 21.3677 5.90979C21.0956 6.27756 20.8137 6.65109 20.5298 7.02012C20.4954 7.06488 20.4903 7.12418 20.517 7.17119C20.9144 7.87077 21.224 8.61811 21.4374 9.39245C21.4515 9.44387 21.497 9.48189 21.553 9.48925C22.0152 9.54957 22.4785 9.61435 22.9301 9.68194C23.5401 9.77311 24 10.3083 24 10.9267V13.0722C24 13.6906 23.5401 14.2258 22.9302 14.317C22.4786 14.3846 22.0153 14.4493 21.5531 14.5096C21.497 14.517 21.4516 14.5549 21.4375 14.6065C21.224 15.3809 20.9144 16.1282 20.517 16.8277C20.4903 16.8747 20.4954 16.934 20.5299 16.9788C20.8145 17.3487 21.0964 17.7223 21.3677 18.0892C21.7345 18.585 21.6813 19.2886 21.2441 19.7259L19.727 21.243C19.2896 21.6803 18.586 21.7335 18.0903 21.3666C17.7238 21.0956 17.3503 20.8137 16.9799 20.5288C16.9351 20.4943 16.8758 20.4893 16.8288 20.5159C16.1295 20.9132 15.3822 21.2228 14.6075 21.4364C14.556 21.4505 14.518 21.4959 14.5107 21.552C14.4503 22.0151 14.3855 22.4785 14.3181 22.9289C14.2268 23.5389 13.6917 23.9988 13.0733 23.9988H10.9278C10.3094 23.9988 9.77424 23.5389 9.68307 22.9289C9.61562 22.4778 9.55084 22.0145 9.49047 21.5519C9.48311 21.4958 9.44514 21.4504 9.39363 21.4362C8.6191 21.2226 7.87171 20.913 7.17241 20.5157C7.1254 20.4892 7.06611 20.4942 7.0213 20.5286C6.65095 20.8135 6.27733 21.0954 5.91092 21.3664C5.4151 21.7332 4.71154 21.6801 4.27421 21.2428L2.75712 19.7257C2.31989 19.2884 2.26664 18.5849 2.63342 18.089C2.90505 17.7219 3.18699 17.3483 3.47132 16.9786C3.50578 16.9338 3.51084 16.8746 3.48412 16.8275C3.08678 16.128 2.77713 15.3807 2.56372 14.6063C2.54947 14.5548 2.5041 14.5168 2.44799 14.5094C1.98569 14.4492 1.52234 14.3843 1.07096 14.3168C0.461 14.2256 0.00108337 13.6905 0.00108337 13.0721V10.9265C0.00108337 10.3083 0.461 9.77306 1.07091 9.68189ZM1.12172 13.0723C1.12172 13.1403 1.17113 13.1989 1.2367 13.2088C1.68115 13.2753 2.13741 13.339 2.59283 13.3985C3.09709 13.4642 3.50967 13.8215 3.644 14.3088C3.83286 14.994 4.10687 15.6553 4.45842 16.2743C4.7084 16.7143 4.66954 17.2591 4.35943 17.6623C4.07931 18.0264 3.80168 18.3943 3.53427 18.7558C3.49481 18.809 3.50137 18.8855 3.54941 18.9336L5.06655 20.4507C5.11464 20.4988 5.19109 20.5052 5.24434 20.4659C5.60512 20.1989 5.97312 19.9213 6.33789 19.6407C6.74095 19.3305 7.28571 19.2917 7.72575 19.5416C8.34471 19.8931 9.00604 20.1672 9.69132 20.3561C10.1785 20.4904 10.5358 20.903 10.6016 21.4073C10.661 21.863 10.7249 22.3192 10.7913 22.7634C10.8011 22.829 10.8598 22.8784 10.9278 22.8784H13.0733C13.1413 22.8784 13.2 22.829 13.2097 22.7633C13.2761 22.3197 13.34 21.8634 13.3994 21.4073C13.4652 20.903 13.8226 20.4904 14.3098 20.3561C14.9951 20.1672 15.6564 19.8932 16.2753 19.5416C16.4683 19.432 16.6814 19.3779 16.8939 19.3779C17.1659 19.3779 17.4369 19.4665 17.6631 19.6408C18.028 19.9214 18.3959 20.199 18.7567 20.466C18.81 20.5053 18.8864 20.4989 18.9344 20.4508L20.4516 18.9337C20.4997 18.8856 20.5062 18.8092 20.4668 18.7559C20.1995 18.3946 19.922 18.0267 19.6416 17.6623C19.3315 17.2592 19.2926 16.7145 19.5425 16.2745C19.8942 15.6553 20.1682 14.9941 20.357 14.3089C20.4913 13.8217 20.9039 13.4644 21.4082 13.3986C21.8634 13.3393 22.3197 13.2754 22.7644 13.2089C22.83 13.1991 22.8794 13.1404 22.8794 13.0724V10.9269C22.8794 10.8589 22.83 10.8003 22.7644 10.7904C22.3197 10.7239 21.8634 10.6601 21.4083 10.6007C20.9039 10.535 20.4914 10.1777 20.3571 9.69042C20.1683 9.00533 19.8943 8.344 19.5426 7.72485C19.2926 7.28476 19.3315 6.74001 19.6416 6.33699C19.9212 5.97345 20.1988 5.60559 20.4668 5.24344C20.5061 5.19015 20.4996 5.11365 20.4516 5.06566L18.9345 3.54852C18.8865 3.50043 18.8101 3.494 18.7568 3.53333C18.396 3.80023 18.0281 4.07786 17.6632 4.35853C17.2601 4.66855 16.7154 4.7075 16.2753 4.45753C15.6564 4.10598 14.9951 3.83191 14.3098 3.64301C13.8226 3.50872 13.4652 3.09615 13.3994 2.59184C13.3399 2.13572 13.2761 1.67946 13.2097 1.23567C13.1999 1.17018 13.1412 1.12073 13.0733 1.12073H10.9277C10.8598 1.12073 10.8011 1.17014 10.7913 1.23571C10.7249 1.67936 10.6611 2.13558 10.6015 2.59184C10.5358 3.09615 10.1784 3.50872 9.69123 3.64301C9.00594 3.83191 8.34466 4.10598 7.72566 4.45753C7.28561 4.70736 6.74085 4.66855 6.33784 4.35844C5.97303 4.07781 5.60508 3.80018 5.24434 3.53328C5.19105 3.49382 5.11455 3.50033 5.0665 3.54847L3.54941 5.06556C3.50132 5.11365 3.49485 5.1901 3.53423 5.24335C3.80164 5.60493 4.07927 5.97279 4.35938 6.3369C4.66944 6.74005 4.70835 7.28481 4.45837 7.7249C4.10678 8.34386 3.83276 9.00514 3.64386 9.69042C3.50957 10.1776 3.0969 10.5349 2.59278 10.6006C2.13737 10.66 1.68106 10.7239 1.23656 10.7903C1.17099 10.8002 1.12158 10.8588 1.12158 10.9268V13.0723H1.12172Z" fill="currentColor"/>
<path d="M12.0008 6.79004C14.8732 6.79004 17.21 9.12684 17.21 11.9992C17.21 14.8716 14.8732 17.2084 12.0008 17.2084C9.1284 17.2084 6.7916 14.8716 6.7916 11.9992C6.7916 9.12684 9.1284 6.79004 12.0008 6.79004ZM12.0008 16.0877C14.2552 16.0877 16.0893 14.2536 16.0893 11.9992C16.0893 9.74477 14.2551 7.91072 12.0008 7.91072C9.74638 7.91072 7.91228 9.74482 7.91228 11.9992C7.91228 14.2536 9.74633 16.0877 12.0008 16.0877Z" fill="currentColor"/>
</svg>
