<svg width="27" height="17" viewBox="0 0 27 17" xmlns="http://www.w3.org/2000/svg">
<path d="M21.3183 11.5691C20.7884 10.4643 18.8928 8.93088 17.0613 7.44924C16.0397 6.62346 15.0745 5.84272 14.4591 5.22735C14.305 5.0721 14.0744 5.02258 13.8707 5.09573C13.4916 5.233 13.2576 5.33873 13.0731 5.42084C12.7919 5.54682 12.6974 5.58959 12.3182 5.62782C12.1506 5.6447 11.9999 5.73472 11.9065 5.8742C11.1111 7.06332 10.2876 6.96207 9.73743 6.7776C9.56193 6.71912 9.53045 6.64371 9.51357 6.57173C9.39545 6.07786 9.98835 4.92808 10.7567 4.15968C12.5849 2.33041 13.5276 1.87251 15.5189 2.76242C17.7779 3.77266 20.0414 4.56358 20.0639 4.57144C20.3598 4.6738 20.6782 4.51854 20.7806 4.22492C20.8818 3.93129 20.7277 3.61066 20.434 3.5083C20.4115 3.50044 18.193 2.72529 15.979 1.73414C13.3994 0.58098 11.984 1.34036 9.9624 3.36317C9.19289 4.13268 8.14774 5.68968 8.41774 6.8316C8.5336 7.31761 8.87564 7.67763 9.38411 7.84522C10.6588 8.266 11.822 7.86321 12.6883 6.71348C13.046 6.65837 13.2407 6.57737 13.5331 6.44574C13.6389 6.39849 13.7626 6.34338 13.9269 6.27699C14.5704 6.88112 15.4389 7.58424 16.3536 8.32337C18.0073 9.661 19.8827 11.1775 20.3046 12.0551C20.5128 12.4882 20.2889 12.7706 20.137 12.8999C19.9142 13.0912 19.6094 13.1519 19.444 13.036C19.2617 12.9112 19.0244 12.9033 18.8365 13.0158C18.6475 13.1283 18.5417 13.3409 18.5654 13.5592C18.6036 13.9169 18.2762 14.1217 18.1345 14.1926C17.7745 14.3748 17.3987 14.3433 17.2581 14.2128C17.1006 14.0666 16.8744 14.0238 16.6742 14.0981C16.474 14.1734 16.3344 14.3579 16.3142 14.5717C16.2804 14.9407 16.007 15.295 15.6504 15.4334C15.4783 15.4987 15.2285 15.538 15.0047 15.3333C14.8652 15.2073 14.6716 15.1589 14.4905 15.2028C14.3072 15.2477 14.1598 15.3805 14.0957 15.5571C14.0743 15.6134 14.0259 15.7484 13.4994 15.7484C13.1248 15.7484 12.4509 15.4953 12.1213 15.277C11.7264 15.0171 9.25022 13.1699 7.1116 11.3788C6.81122 11.1257 6.29147 10.5834 5.83246 10.1042C5.42519 9.67892 5.05283 9.29306 4.86156 9.13106C4.62193 8.92856 4.26755 8.95893 4.06842 9.19745C3.86819 9.43481 3.8974 9.79035 4.13482 9.99059C4.30921 10.138 4.64671 10.4946 5.01908 10.8827C5.52085 11.4069 6.03945 11.9492 6.38823 12.2417C8.48303 13.9957 11.0008 15.8891 11.5025 16.2186C11.9165 16.4909 12.8087 16.8734 13.4994 16.8734C14.0541 16.8734 14.4805 16.7463 14.7763 16.4977C15.1723 16.6518 15.6223 16.6529 16.0555 16.4842C16.5674 16.2861 16.9881 15.8868 17.2266 15.403C17.6698 15.4975 18.1772 15.4312 18.6385 15.1994C19.0896 14.9722 19.4158 14.6246 19.5778 14.2184C20.0256 14.242 20.4868 14.0834 20.8682 13.756C21.5141 13.2037 21.6918 12.3442 21.3183 11.5691Z" fill="currentColor"/>
<path d="M11.2486 2.25H6.18606C5.87556 2.25 5.62354 2.50202 5.62354 2.81252C5.62354 3.12303 5.87556 3.37505 6.18606 3.37505H11.2486C11.5591 3.37505 11.8111 3.12303 11.8111 2.81252C11.8111 2.50202 11.5591 2.25 11.2486 2.25Z" fill="currentColor"/>
<path d="M22.9671 10.3727C22.7927 10.1151 22.444 10.0442 22.1864 10.2197L20.5416 11.3244C20.284 11.4977 20.2154 11.8476 20.3886 12.1052C20.4978 12.2661 20.6755 12.3538 20.8567 12.3538C20.9636 12.3538 21.0727 12.3235 21.1694 12.2582L22.8142 11.1535C23.0717 10.9802 23.1404 10.6303 22.9671 10.3727Z" fill="currentColor"/>
<path d="M19.4746 13.0576C19.0718 12.7404 17.2707 10.8965 16.1569 9.73547C15.942 9.51045 15.5854 9.5026 15.3615 9.7186C15.1365 9.93349 15.1297 10.2901 15.3446 10.514C15.6338 10.8155 18.1842 13.4739 18.7771 13.9419C18.8794 14.0229 19.0032 14.0623 19.1247 14.0623C19.2901 14.0623 19.4554 13.9881 19.5679 13.8474C19.7604 13.6044 19.7187 13.25 19.4746 13.0576Z" fill="currentColor"/>
<path d="M17.2274 14.1859C16.5535 13.647 14.8604 11.8481 14.4778 11.4319C14.2663 11.2024 13.9119 11.1889 13.6824 11.3981C13.454 11.6085 13.4383 11.9651 13.6487 12.1935C13.6689 12.2149 15.6895 14.3963 16.5242 15.0646C16.6277 15.1467 16.7526 15.1872 16.8752 15.1872C17.0395 15.1872 17.2037 15.1141 17.3151 14.9768C17.5087 14.7338 17.4693 14.3794 17.2274 14.1859Z" fill="currentColor"/>
<path d="M14.9879 15.3183C14.1858 14.6421 12.5444 12.895 12.2237 12.5518C12.0111 12.3246 11.6545 12.3122 11.4283 12.5248C11.2011 12.7375 11.1898 13.0929 11.4013 13.3202C11.8626 13.8141 13.4331 15.4791 14.2623 16.1789C14.368 16.2677 14.4963 16.3116 14.6245 16.3116C14.7842 16.3116 14.944 16.243 15.0554 16.1114C15.2556 15.8729 15.2253 15.5185 14.9879 15.3183Z" fill="currentColor"/>
<path d="M6.57458 1.2788C5.61042 0.365269 1.75502 0.0693729 0.596274 0.00076469C0.43654 -0.00709282 0.289146 0.0457479 0.176662 0.152642C0.0641257 0.258375 0 0.406877 0 0.562129V10.6872C0 10.9977 0.25202 11.2498 0.562524 11.2498H3.93756C4.18057 11.2498 4.39657 11.0934 4.47193 10.8616C4.55404 10.6096 6.49247 4.66059 6.74781 1.73553C6.76247 1.56452 6.69945 1.39576 6.57458 1.2788ZM3.52692 10.1248H1.125V1.16515C2.93291 1.30801 4.88368 1.61852 5.59244 1.96277C5.29433 4.42655 3.94542 8.80398 3.52692 10.1248Z" fill="currentColor"/>
<path d="M26.4378 1.125C22.021 1.125 19.5707 2.25564 19.4684 2.30289C19.3221 2.3715 19.213 2.49864 19.168 2.65278C19.123 2.80693 19.1455 2.97231 19.2298 3.10952C19.9251 4.22893 22.102 10.4458 22.5205 11.9623C22.588 12.2064 22.8096 12.3751 23.0628 12.3751H26.4378C26.7483 12.3751 27.0003 12.1231 27.0003 11.8126V1.68747C27.0003 1.37586 26.7483 1.125 26.4378 1.125ZM25.8753 11.2501H23.4835C22.9503 9.51308 21.3752 4.98378 20.4966 3.11179C21.355 2.82043 23.1989 2.31976 25.8753 2.2568V11.2501Z" fill="currentColor"/>
</svg>
