<svg width="38" height="35" viewBox="0 0 38 35" fill="none" xmlns="http://www.w3.org/2000/svg">
<path d="M26.2439 10.3997L33.0018 18.2567L36.6789 15.3624L30.4421 7.95312L26.2439 10.3997Z" fill="#6289FA"/>
<path d="M11.9752 10.3951L4.55605 18.6618L0.878906 15.7677L7.77693 7.95312L11.9752 10.3951Z" fill="#008816"/>
<path d="M33.0014 18.2562L26.2435 10.3992H20.7729L16.5019 11.5271L11.975 10.3945L4.55591 18.6613L8.22254 23.1804L7.83507 23.535C7.11186 24.1962 7.11186 25.2682 7.83507 25.9296C8.4582 26.4995 9.4148 26.5778 10.1303 26.1652L10.1272 26.2442C9.40428 26.9057 9.40428 27.9777 10.1272 28.6391C10.8473 29.2977 12.0128 29.3 12.7366 28.6466L12.7357 28.6531C12.0125 29.3146 12.0125 30.3866 12.7357 31.048C13.4587 31.7092 14.631 31.7092 15.354 31.048L15.7087 30.7235L15.707 30.754C14.9838 31.4151 14.9838 32.4874 15.707 33.1486C16.43 33.81 17.6023 33.81 18.3252 33.1486L19.1889 32.3587C19.2835 32.2724 19.4038 32.1187 19.54 31.9164C19.4507 32.0763 19.3339 32.2261 19.1889 32.3587L19.184 32.3631L19.8888 32.8823C20.612 33.5438 21.7841 33.5438 22.5073 32.8823C23.2302 32.2211 23.2302 31.1489 22.5073 30.4877L22.5098 30.4854C23.2327 31.1466 24.4051 31.1466 25.128 30.4854C25.8512 29.8239 25.8512 28.7519 25.128 28.0905L25.1309 28.0882C25.8538 28.7493 27.0262 28.7493 27.7491 28.0882C28.472 27.427 28.472 26.3547 27.7491 25.6935L27.7516 25.6909C28.4748 26.3524 29.6469 26.3524 30.3701 25.6909C31.0931 25.0298 31.0931 23.9578 30.3701 23.2963L33.0014 18.2562Z" fill="#FCC89D"/>
<path d="M37.2574 14.9552L31.0209 7.54566C30.7901 7.27162 30.3691 7.20402 30.0498 7.38966L26.0233 9.73176H20.7718C20.7039 9.73176 20.6362 9.74502 20.5708 9.76244L16.4991 10.8344L12.2742 9.77752L8.16888 7.38966C7.85504 7.20714 7.4417 7.26902 7.2083 7.5337L0.310274 15.3483C0.0623832 15.6291 0.103319 16.0391 0.402381 16.2744L4.01784 19.1202L7.26146 23.1179C6.31282 24.0422 6.3313 25.5001 7.31832 26.4031C7.75582 26.8029 8.31216 27.0289 8.88441 27.0814C8.86451 27.2 8.85428 27.3203 8.85428 27.4425C8.85428 28.0733 9.12292 28.6664 9.61046 29.1123C10.0983 29.5584 10.7467 29.8041 11.4364 29.8041C11.4458 29.8041 11.4549 29.8036 11.464 29.8034C11.4637 29.8195 11.4628 29.8353 11.4628 29.8515C11.4628 30.4822 11.7315 31.0753 12.219 31.5215C12.7068 31.9674 13.3553 32.2131 14.0449 32.2131C14.1811 32.2131 14.3158 32.2029 14.448 32.1842C14.504 32.7094 14.7516 33.2206 15.1906 33.622C15.6937 34.0825 16.355 34.3126 17.0162 34.3126C17.6774 34.3126 18.3387 34.0825 18.8421 33.622L19.237 33.2609L19.4027 33.3831C19.9019 33.8253 20.5501 34.0463 21.1982 34.0463C21.8595 34.0463 22.5207 33.8162 23.0239 33.3558C23.5376 32.8859 23.7892 32.2658 23.7786 31.6489C24.4529 31.6582 25.1312 31.4284 25.6449 30.9588C26.1581 30.4892 26.4096 29.8697 26.3997 29.2529C27.1021 29.2631 27.7685 29.0163 28.2657 28.5616C28.7794 28.0918 29.031 27.4717 29.0205 26.8547C29.6953 26.864 30.3731 26.6342 30.8867 26.1644C31.7635 25.3625 31.8763 24.1231 31.2262 23.2082L33.5945 18.6717L37.1551 15.8694C37.4493 15.6377 37.4942 15.2363 37.2574 14.9552ZM7.9352 8.83761L10.8872 10.5544L4.46558 17.7096L1.89229 15.684L7.9352 8.83761ZM8.35167 24.0082L9.2426 23.1933C9.26961 23.1686 9.29804 23.1452 9.32703 23.1234C9.5013 22.9934 9.71223 22.9159 9.93567 22.8975C9.94193 22.8969 9.94847 22.8969 9.95472 22.8967C9.98656 22.8943 10.0184 22.8928 10.0505 22.893C10.3558 22.8969 10.6395 23.0111 10.8499 23.2141C11.2627 23.6132 11.2405 24.2653 10.8005 24.6678L9.93653 25.458C9.49959 25.8576 8.78861 25.8576 8.35167 25.458C7.91474 25.0581 7.91474 24.4078 8.35167 24.0082ZM10.6438 28.1672C10.432 27.9737 10.3155 27.7163 10.3155 27.4425C10.3155 27.1688 10.432 26.9114 10.6438 26.7177L12.3714 25.1376C12.7023 24.835 13.2225 24.7521 13.6455 24.9364C14.0816 25.1265 14.3269 25.5594 14.263 25.9949C14.2289 26.2273 14.1106 26.4462 13.9292 26.6124L12.229 28.1672C12.0172 28.3609 11.7357 28.4675 11.4364 28.4675C11.137 28.4675 10.8556 28.3609 10.6438 28.1672ZM13.2524 30.5761C13.0406 30.3826 12.924 30.1252 12.924 29.8515C12.924 29.5777 13.0406 29.3203 13.2524 29.1266L14.9796 27.5465C15.3336 27.2231 15.9013 27.1534 16.3345 27.384C16.7302 27.5946 16.9375 28.0081 16.8695 28.4199C16.8323 28.6464 16.7146 28.8593 16.5375 29.0213L14.8375 30.5761C14.6257 30.7698 14.3443 30.8764 14.0449 30.8764C13.7456 30.8764 13.4641 30.7698 13.2524 30.5761ZM16.2236 32.6769C15.7867 32.2773 15.7867 31.627 16.2236 31.2274L17.1146 30.4125C17.1416 30.3878 17.1697 30.3647 17.1987 30.3429L17.2007 30.3413C17.3457 30.2337 17.516 30.1616 17.6976 30.1302C17.7019 30.1297 17.7062 30.1291 17.7104 30.1286C17.7417 30.1234 17.7735 30.1193 17.8054 30.1167C17.8182 30.1156 17.831 30.1156 17.844 30.1148C17.8702 30.1135 17.8961 30.112 17.9225 30.1122C18.2275 30.1161 18.5115 30.23 18.7219 30.4333C18.7478 30.4583 18.7719 30.4843 18.7941 30.5111C19.1301 30.9128 19.0849 31.5095 18.6679 31.8912L17.8085 32.6772C17.3716 33.0768 16.6606 33.0765 16.2236 32.6769ZM29.8534 25.2193C29.4165 25.6192 28.7055 25.6189 28.2685 25.2193C28.2526 25.2047 28.2358 25.1912 28.2188 25.1785L23.5208 20.8364C23.2368 20.5741 22.7743 20.572 22.4874 20.8317C22.2006 21.0912 22.1983 21.5142 22.482 21.7766L27.2309 26.1652L27.2326 26.1667C27.6696 26.5663 27.6696 27.2169 27.2326 27.6165C27.0208 27.8102 26.7394 27.9168 26.4401 27.9168C26.1404 27.9168 25.859 27.8102 25.6475 27.6165L22.4707 24.6808C22.187 24.4185 21.7244 24.4164 21.4376 24.6759C21.1508 24.9356 21.1485 25.3586 21.4322 25.621L24.5604 28.5117C24.5763 28.5299 24.5934 28.5473 24.6116 28.5639C25.0485 28.9636 25.0485 29.6141 24.6116 30.0137C24.1744 30.4133 23.4631 30.4131 23.0261 30.0134L21.2923 28.4111C21.0083 28.1487 20.5458 28.1464 20.259 28.4061C19.9721 28.6656 19.9699 29.0886 20.2536 29.351L21.9391 30.9084C21.955 30.9266 21.972 30.9442 21.9905 30.9609C22.4275 31.3605 22.4275 32.011 21.9905 32.4107C21.5536 32.8105 20.8426 32.8103 20.4057 32.4107C20.3553 32.3646 20.2962 32.3293 20.2399 32.2898C20.1922 32.2565 20.1797 32.2333 20.2035 32.1803C20.2277 32.1265 20.2638 32.0779 20.288 32.0238C20.3147 31.9635 20.3363 31.9013 20.3573 31.8389C20.4693 31.5087 20.5023 31.1536 20.452 30.8109C20.3553 30.1533 19.9599 29.56 19.3607 29.1846C19.0369 28.982 18.6622 28.8492 18.2739 28.7992C18.4621 28.04 18.236 27.2169 17.6482 26.6488C17.1643 26.1813 16.5108 25.9189 15.8077 25.9101C15.7822 25.9098 15.7566 25.9098 15.7307 25.9101C15.7463 25.2965 15.5024 24.6868 15.0399 24.2398C14.5558 23.7724 13.9022 23.51 13.1995 23.5012C12.9905 23.4986 12.7796 23.5189 12.5761 23.5618C12.4891 23.0082 12.184 22.496 11.7221 22.1297C11.263 21.7662 10.6856 21.5644 10.0707 21.5566C9.4234 21.548 8.78747 21.7665 8.30676 22.1635L5.48244 18.6828L12.2392 11.1542L14.3926 11.6929L11.5802 16.2318C11.2402 16.7807 11.1544 17.4177 11.3383 18.0255C11.5222 18.6337 11.9538 19.1397 12.5539 19.4506C12.5914 19.4701 12.6292 19.4886 12.6676 19.5063C12.6704 19.5076 12.6733 19.5089 12.6764 19.5102C12.7773 19.5562 12.8811 19.5957 12.9863 19.629C13.4761 19.7842 14.0051 19.8011 14.5154 19.6721C15.1801 19.5039 15.7333 19.109 16.0733 18.5604L17.9009 15.6107L21.1641 15.8223L29.8537 23.7695C30.2903 24.1694 30.2903 24.8197 29.8534 25.2193ZM30.1561 22.1562L22.0044 14.7009C21.9891 14.6866 21.9729 14.6731 21.9561 14.6603C21.8387 14.5709 21.6932 14.5168 21.5397 14.5069L17.5441 14.2477C17.2678 14.2303 16.9932 14.3647 16.8567 14.5849L14.802 17.9015C14.6544 18.1397 14.4142 18.311 14.1257 18.3841C13.8374 18.4572 13.5349 18.4228 13.2742 18.2879C13.0138 18.1529 12.8265 17.9332 12.7466 17.6693C12.6667 17.4054 12.704 17.1288 12.8518 16.8906L15.5948 12.4631L16.7063 12.1706C16.7137 12.1685 16.7208 12.1659 16.7282 12.1638L20.8767 11.0682H25.8891L32.1467 18.3435L30.1561 22.1562ZM33.1038 17.2947L27.3171 10.563L30.2704 8.84515L35.6777 15.269L33.1038 17.2947Z" fill="black"/>
<path d="M22.7221 8.47743C22.9091 8.47743 23.0962 8.41217 23.2389 8.28165L28.2297 3.71706C28.5151 3.45602 28.5151 3.03299 28.2297 2.77195C27.9443 2.51091 27.4817 2.51091 27.1963 2.77195L22.2055 7.33654C21.9201 7.59758 21.9201 8.0206 22.2055 8.28165C22.3482 8.41217 22.5353 8.47743 22.7221 8.47743Z" fill="black"/>
<path d="M14.3186 8.28165C14.4613 8.41217 14.6484 8.47743 14.8355 8.47743C15.0222 8.47743 15.2093 8.41217 15.352 8.28165C15.6374 8.0206 15.6374 7.59758 15.352 7.33654L10.3612 2.77195C10.0758 2.51091 9.61325 2.51091 9.32783 2.77195C9.04242 3.03299 9.04242 3.45602 9.32783 3.71706L14.3186 8.28165Z" fill="black"/>
<path d="M18.7784 8.47725C19.1818 8.47725 19.509 8.17799 19.509 7.80905V4.03149C19.509 3.66254 19.1818 3.36328 18.7784 3.36328C18.3751 3.36328 18.0479 3.66254 18.0479 4.03149V7.80905C18.0479 8.17799 18.3751 8.47725 18.7784 8.47725Z" fill="black"/>
<path d="M18.1042 1.60946C18.2202 1.8666 18.5093 2.03534 18.8144 2.02078C19.1157 2.00648 19.3804 1.82032 19.4736 1.55798C19.5671 1.29356 19.4654 0.992216 19.2232 0.823735C18.9761 0.651614 18.6316 0.641994 18.3732 0.798255C18.0849 0.972456 17.9732 1.3193 18.1042 1.60946Z" fill="black"/>
</svg>
