<svg width="32" height="31" viewBox="0 0 32 31" fill="none" xmlns="http://www.w3.org/2000/svg">
<path d="M0.97168 23.2502V8.61133V8.18077L16.1474 0.861328L30.8896 8.18077V23.2502L15.7138 30.1391L0.97168 23.2502Z" fill="#FFD55D"/>
<path d="M20.9167 13.3469L6.60815 5.5969L12.2449 2.58301L26.987 10.333V17.6525L24.3855 16.3608L20.9167 20.6663V13.3469Z" fill="#FF6B6B"/>
<path d="M31.3646 7.47199L16.4647 0.0742417C16.265 -0.0247472 16.0295 -0.0247472 15.8301 0.0742417L0.930205 7.47199C0.689679 7.59141 0.537842 7.83518 0.537842 8.10221V22.8977C0.537842 23.1647 0.689679 23.4085 0.92985 23.5279L15.8297 30.9257C15.9298 30.9753 16.0383 31 16.1472 31C16.2561 31 16.3647 30.9753 16.4647 30.9257L31.3646 23.5279C31.6048 23.4085 31.7566 23.1647 31.7566 22.8977V8.10221C31.7566 7.83518 31.6048 7.59141 31.3646 7.47199V7.47199ZM16.1472 1.49214L29.4606 8.10221L26.6126 9.51623L13.2996 2.90617L16.1472 1.49214ZM20.9365 12.3344L7.62309 5.72436L11.7127 3.69385L25.0261 10.3039L20.9365 12.3344ZM21.4686 13.6456L25.7257 11.5319V16.7727L24.3642 15.8071C24.2098 15.6976 24.0169 15.6543 23.8299 15.6863C23.6429 15.7191 23.4766 15.8244 23.3684 15.9794L21.4686 18.7049V13.6456ZM6.03661 6.51204L19.3496 13.1221L16.1472 14.7123L2.83384 8.10221L6.03661 6.51204ZM1.95688 9.24217L15.4377 15.9354V29.1551L1.95688 22.4619V9.24217ZM16.8568 29.1555V15.9354L20.0496 14.3501V20.9602C20.0496 21.2684 20.2511 21.5407 20.5473 21.6327C20.6176 21.6545 20.6885 21.6647 20.7591 21.6647C20.9876 21.6647 21.2075 21.5548 21.3427 21.3614L24.1258 17.3698L26.0234 18.7155C26.2398 18.8687 26.5243 18.8895 26.7602 18.7684C26.9961 18.6479 27.1448 18.4059 27.1448 18.142V10.8274L30.3376 9.24217V22.4619L16.8568 29.1555Z" fill="black"/>
</svg>
