<svg width="26" height="22" viewBox="0 0 26 22" fill="currentColor" xmlns="http://www.w3.org/2000/svg">
<path d="M25.0745 9.24641L22.7976 5.65436C22.7345 5.55488 22.6409 5.47209 22.5339 5.42269L13.2724 1.05093C13.1005 0.969806 12.901 0.971418 12.7304 1.05524L3.45374 5.6164C3.35639 5.66424 3.27069 5.73938 3.21037 5.8295L0.933384 9.23357C0.73687 9.52737 0.834529 9.94609 1.14222 10.1221L3.10502 11.2451V16.4852C3.10502 16.7166 3.23315 16.9291 3.43788 17.0371L12.7084 21.9286C12.8916 22.0252 13.1185 22.0234 13.3001 21.9238L22.5707 16.8371C22.8729 16.6713 22.9834 16.2919 22.8176 15.9898C22.6517 15.6877 22.2722 15.5772 21.9701 15.743L13.624 20.3224V12.8516L15.3154 14.9722C15.5027 15.2071 15.8534 15.2736 16.1134 15.1248L24.8574 10.1221C25.1591 9.94942 25.2611 9.54084 25.0745 9.24641ZM13.0114 2.30796L20.8961 6.02976L12.9942 10.3594L5.10369 6.196L13.0114 2.30796ZM3.93538 6.9908L12.0418 11.2681L10.0418 13.7758L2.34314 9.37121L3.93538 6.9908ZM4.35342 16.1089V11.9593L9.88621 15.1248C10.1461 15.2735 10.4972 15.2068 10.6843 14.9722L12.3756 12.8516V20.3418L4.35342 16.1089ZM15.9577 13.7758L13.9503 11.2588L22.0566 6.81706L23.6705 9.36305L15.9577 13.7758Z" fill="currentColor"/>
</svg>
