<svg width="20" height="20" viewBox="0 0 20 20" xmlns="http://www.w3.org/2000/svg">
<path d="M19.9921 8.76464L19.5267 2.71205C19.4341 1.5074 18.4926 0.565923 17.288 0.473307L11.2354 0.00787892C10.5056 -0.0481755 9.84644 0.195691 9.32898 0.713188L0.684997 9.35718C0.24328 9.79889 0 10.388 0 11.0159C0 11.6438 0.24328 12.2329 0.684997 12.6747L7.32536 19.315C7.7827 19.7724 8.38328 20.001 8.9841 20.001C9.58472 20.001 10.1856 19.7723 10.6428 19.315L19.2869 10.671C19.8044 10.1535 20.0482 9.49428 19.9921 8.76464ZM18.403 9.78717L9.75898 18.4312C9.33168 18.8584 8.63649 18.8583 8.20926 18.4312L1.5689 11.7908C1.36324 11.5851 1.24999 11.3099 1.24999 11.0159C1.24999 10.7219 1.36324 10.4467 1.56886 10.241L10.2129 1.59705C10.4458 1.36412 10.7147 1.25002 11.0321 1.25002C11.0673 1.25002 11.1032 1.25139 11.1396 1.2542L17.1922 1.71963C17.7777 1.76459 18.2354 2.22228 18.2804 2.80783L18.7458 8.86046C18.7739 9.2253 18.6617 9.52843 18.403 9.78717ZM14.6384 2.98689C13.3289 2.98689 12.2636 4.0522 12.2636 5.36165C12.2636 6.67109 13.3289 7.7364 14.6384 7.73644C15.9478 7.7364 17.0131 6.67109 17.0131 5.36165C17.0131 4.0522 15.9478 2.98689 14.6384 2.98689ZM14.6384 6.48645C14.0182 6.48641 13.5136 5.98184 13.5136 5.36165C13.5136 4.74145 14.0182 4.23688 14.6384 4.23688C15.2586 4.23688 15.7631 4.74145 15.7631 5.36165C15.7631 5.98184 15.2586 6.48641 14.6384 6.48645Z" fill="currentColor"/>
</svg>
