<svg width="21" height="14" viewBox="0 0 21 14" xmlns="http://www.w3.org/2000/svg">
<path d="M20.6986 7.86309L19.2823 6.03892C19.1462 5.86322 18.9362 5.76048 18.7137 5.76048H13.4812V0.720044C13.4812 0.32231 13.1589 0 12.7612 0H0.760083C0.362349 0 0.0400391 0.322355 0.0400391 0.720044C0.0400391 1.11773 0.362394 1.44009 0.760083 1.44009H12.0411V6.48053C12.0411 6.87826 12.3634 7.20057 12.7611 7.20057H18.3611L19.4097 8.5514V12.265H17.4175C17.0198 12.265 16.6975 12.5874 16.6975 12.9851C16.6975 13.3828 17.0198 13.7051 17.4175 13.7051H20.1298C20.5275 13.7051 20.8498 13.3828 20.8498 12.9851V8.30474C20.8498 8.14488 20.7966 7.98934 20.6986 7.86309Z" fill="currentColor"/>
</svg>
